<svg width="26" height="26" viewBox="0 0 26 26" fill="none" xmlns="http://www.w3.org/2000/svg">
<path d="M8.12502 11.9167H4.98335C4.37663 11.9167 4.07327 11.9167 3.84153 12.0347C3.63769 12.1386 3.47196 12.3043 3.3681 12.5082C3.25002 12.7399 3.25002 13.0433 3.25002 13.65V22.75M17.875 11.9167H21.0167C21.6234 11.9167 21.9268 11.9167 22.1585 12.0347C22.3624 12.1386 22.5281 12.3043 22.6319 12.5082C22.75 12.7399 22.75 13.0433 22.75 13.65V22.75M17.875 22.75V6.71667C17.875 5.50322 17.875 4.8965 17.6389 4.43302C17.4311 4.02534 17.0997 3.69388 16.692 3.48615C16.2285 3.25 15.6218 3.25 14.4084 3.25H11.5917C10.3782 3.25 9.77152 3.25 9.30804 3.48615C8.90036 3.69388 8.5689 4.02534 8.36117 4.43302C8.12502 4.8965 8.12502 5.50322 8.12502 6.71667V22.75M23.8334 22.75H2.16669M11.9167 7.58333H14.0834M11.9167 11.9167H14.0834M11.9167 16.25H14.0834" stroke="#6750A4" stroke-width="2" stroke-linecap="round" stroke-linejoin="round"/>
</svg>
