<svg width="332" height="560" viewBox="0 0 332 560" fill="none" xmlns="http://www.w3.org/2000/svg">
<rect width="270" height="22" rx="5" transform="matrix(1 0 0 -1 0 556)" fill="#EEE8F4"/>
<rect y="478" width="237" height="22" rx="5" fill="#EEE8F4"/>
<rect y="506" width="237" height="22" rx="5" fill="#EEE8F4"/>
<rect y="450" width="225" height="22" rx="5" fill="#EEE8F4"/>
<rect y="422" width="219" height="22" rx="5" fill="#EEE8F4"/>
<rect y="394" width="213" height="22" rx="5" fill="#EEE8F4"/>
<rect y="366" width="207" height="22" rx="5" fill="#EEE8F4"/>
<rect y="338" width="204" height="22" rx="5" fill="#EEE8F4"/>
<rect y="310" width="201" height="22" rx="5" fill="#EEE8F4"/>
<rect y="282" width="198" height="22" rx="5" fill="#EEE8F4"/>
<rect y="254" width="180" height="22" rx="5" fill="#EEE8F4"/>
<rect y="226" width="171" height="22" rx="5" fill="#EEE8F4"/>
<rect y="198" width="150" height="22" rx="5" fill="#EEE8F4"/>
<rect y="170" width="150" height="22" rx="5" fill="#EEE8F4"/>
<rect y="142" width="150" height="22" rx="5" fill="#EEE8F4"/>
<rect y="114" width="123" height="22" rx="5" fill="#EEE8F4"/>
<rect y="86" width="123" height="22" rx="5" fill="#EEE8F4"/>
<rect y="58" width="120" height="22" rx="5" fill="#EEE8F4"/>
<rect y="30" width="120" height="22" rx="5" fill="#EEE8F4"/>
<rect y="2" width="90" height="22" rx="5" fill="#EEE8F4"/>
<path d="M227.497 411.198C230.791 411.198 232.879 409.434 233.437 406.158H231.871C231.385 408.534 229.855 409.812 227.497 409.812C224.671 409.812 222.925 407.886 222.925 404.664C222.925 401.55 224.671 399.588 227.497 399.588C229.783 399.588 231.403 400.938 231.871 403.242H233.437C232.897 400.074 230.701 398.202 227.497 398.202C223.627 398.202 221.341 400.92 221.341 404.664C221.341 408.48 223.627 411.198 227.497 411.198ZM238.698 411.144C240.354 411.144 241.434 410.46 241.992 409.362V409.65C241.992 410.532 242.532 411 243.558 411H244.404V409.776H243.864C243.54 409.776 243.378 409.614 243.378 409.308V404.664C243.378 402.648 241.866 401.244 239.508 401.244C237.24 401.244 235.548 402.558 235.368 404.43H236.844C237.006 403.296 238.086 402.522 239.472 402.522C240.912 402.522 241.902 403.368 241.92 404.574C241.902 405.348 240.642 405.33 239.184 405.474C237.276 405.672 235.152 406.086 235.152 408.282C235.152 410.028 236.538 411.144 238.698 411.144ZM238.914 409.866C237.546 409.866 236.646 409.236 236.646 408.246C236.646 407.022 237.96 406.842 239.274 406.698C240.444 406.572 241.506 406.464 241.92 405.906V407.148C241.92 408.732 240.696 409.866 238.914 409.866ZM247.627 411V397.5H246.133V411H247.627ZM253.2 411.144C254.856 411.144 255.936 410.46 256.494 409.362V409.65C256.494 410.532 257.034 411 258.06 411H258.906V409.776H258.366C258.042 409.776 257.88 409.614 257.88 409.308V404.664C257.88 402.648 256.368 401.244 254.01 401.244C251.742 401.244 250.05 402.558 249.87 404.43H251.346C251.508 403.296 252.588 402.522 253.974 402.522C255.414 402.522 256.404 403.368 256.422 404.574C256.404 405.348 255.144 405.33 253.686 405.474C251.778 405.672 249.654 406.086 249.654 408.282C249.654 410.028 251.04 411.144 253.2 411.144ZM253.416 409.866C252.048 409.866 251.148 409.236 251.148 408.246C251.148 407.022 252.462 406.842 253.776 406.698C254.946 406.572 256.008 406.464 256.422 405.906V407.148C256.422 408.732 255.198 409.866 253.416 409.866ZM265.477 411.198C267.997 411.198 269.761 409.146 269.761 406.176C269.761 403.26 267.997 401.244 265.477 401.244C264.037 401.244 262.831 401.91 262.129 402.954V397.5H260.635V411H261.823L261.985 409.182C262.633 410.424 263.911 411.198 265.477 411.198ZM265.243 409.902C263.425 409.902 262.129 408.336 262.129 406.104C262.129 403.998 263.425 402.54 265.225 402.54C267.007 402.54 268.213 404.034 268.213 406.176C268.213 408.372 267.007 409.902 265.243 409.902ZM273.22 411V405.996C273.22 404.034 274.39 402.882 276.406 402.882H276.73V401.406H276.406C274.822 401.406 273.706 402.054 273.094 403.278L272.914 401.46H271.726V411H273.22ZM279.197 399.858C279.827 399.858 280.295 399.372 280.295 398.742C280.295 398.112 279.827 397.644 279.197 397.644C278.567 397.644 278.081 398.112 278.081 398.742C278.081 399.372 278.567 399.858 279.197 399.858ZM279.935 411V401.46H278.441V411H279.935ZM285.456 411.144C287.112 411.144 288.192 410.46 288.75 409.362V409.65C288.75 410.532 289.29 411 290.316 411H291.162V409.776H290.622C290.298 409.776 290.136 409.614 290.136 409.308V404.664C290.136 402.648 288.624 401.244 286.266 401.244C283.998 401.244 282.306 402.558 282.126 404.43H283.602C283.764 403.296 284.844 402.522 286.23 402.522C287.67 402.522 288.66 403.368 288.678 404.574C288.66 405.348 287.4 405.33 285.942 405.474C284.034 405.672 281.91 406.086 281.91 408.282C281.91 410.028 283.296 411.144 285.456 411.144ZM285.672 409.866C284.304 409.866 283.404 409.236 283.404 408.246C283.404 407.022 284.718 406.842 286.032 406.698C287.202 406.572 288.264 406.464 288.678 405.906V407.148C288.678 408.732 287.454 409.866 285.672 409.866Z" fill="#1C1B1F"/>
<path d="M216.51 383L217.986 379.4H223.818L225.294 383H226.86L221.658 370.4H220.128L214.944 383H216.51ZM220.902 372.326L223.242 378.032H218.562L220.902 372.326ZM233.48 383.198C236 383.198 237.764 381.146 237.764 378.176C237.764 375.26 236 373.244 233.48 373.244C232.04 373.244 230.834 373.91 230.132 374.954V369.5H228.638V383H229.826L229.988 381.182C230.636 382.424 231.914 383.198 233.48 383.198ZM233.246 381.902C231.428 381.902 230.132 380.336 230.132 378.104C230.132 375.998 231.428 374.54 233.228 374.54C235.01 374.54 236.216 376.034 236.216 378.176C236.216 380.372 235.01 381.902 233.246 381.902ZM241.223 383V377.996C241.223 376.034 242.393 374.882 244.409 374.882H244.733V373.406H244.409C242.825 373.406 241.709 374.054 241.097 375.278L240.917 373.46H239.729V383H241.223ZM249.918 383.198C251.232 383.198 252.384 382.64 253.014 381.56L253.14 383H254.328V373.46H252.834V379.256C252.816 380.696 251.844 381.884 250.062 381.884C248.712 381.884 247.758 381.146 247.758 379.778V373.46H246.264V379.832C246.264 381.776 247.596 383.198 249.918 383.198ZM263.8 383V381.65H258.112L263.728 374.81V373.46H256.564V374.81H262.018L256.402 381.65V383H263.8ZM272.888 383V381.65H267.2L272.816 374.81V373.46H265.652V374.81H271.106L265.49 381.65V383H272.888ZM279.149 383.198C281.831 383.198 283.829 381.434 283.829 378.14C283.829 375.44 282.191 373.244 279.149 373.244C276.557 373.244 274.469 374.954 274.469 378.14C274.469 381.02 276.089 383.198 279.149 383.198ZM279.149 381.902C277.421 381.902 275.999 380.588 275.999 378.14C275.999 375.998 277.241 374.54 279.149 374.54C281.057 374.54 282.299 375.998 282.299 378.14C282.299 380.21 281.183 381.902 279.149 381.902Z" fill="#1C1B1F"/>
<path d="M216.477 355.198C219.267 355.198 220.959 353.866 220.959 351.652C220.959 349.276 219.033 348.646 217.431 348.142L215.397 347.512C214.317 347.17 212.877 346.882 212.877 345.496C212.877 344.29 213.993 343.57 215.577 343.57C217.575 343.57 218.817 344.56 218.943 346.342H220.509C220.311 343.66 218.529 342.202 215.649 342.202C213.039 342.202 211.365 343.534 211.365 345.568C211.365 348.034 213.903 348.574 214.911 348.898L217.089 349.582C218.295 349.96 219.411 350.446 219.411 351.724C219.411 353.038 218.403 353.83 216.477 353.83C214.263 353.83 212.733 352.804 212.553 351.184H210.969C211.131 353.56 213.309 355.198 216.477 355.198ZM226.026 355.144C227.682 355.144 228.762 354.46 229.32 353.362V353.65C229.32 354.532 229.86 355 230.886 355H231.732V353.776H231.192C230.868 353.776 230.706 353.614 230.706 353.308V348.664C230.706 346.648 229.194 345.244 226.836 345.244C224.568 345.244 222.876 346.558 222.696 348.43H224.172C224.334 347.296 225.414 346.522 226.8 346.522C228.24 346.522 229.23 347.368 229.248 348.574C229.23 349.348 227.97 349.33 226.512 349.474C224.604 349.672 222.48 350.086 222.48 352.282C222.48 354.028 223.866 355.144 226.026 355.144ZM226.242 353.866C224.874 353.866 223.974 353.236 223.974 352.246C223.974 351.022 225.288 350.842 226.602 350.698C227.772 350.572 228.834 350.464 229.248 349.906V351.148C229.248 352.732 228.024 353.866 226.242 353.866ZM234.901 355V349.996C234.901 348.034 236.071 346.882 238.087 346.882H238.411V345.406H238.087C236.503 345.406 235.387 346.054 234.775 347.278L234.595 345.46H233.407V355H234.901ZM243.534 355.198C245.1 355.198 246.36 354.406 246.99 353.164L247.152 355H248.34V341.5H246.846V346.882C246.162 345.874 244.956 345.244 243.516 345.244C240.96 345.244 239.196 347.26 239.196 350.176C239.196 353.146 240.978 355.198 243.534 355.198ZM243.768 353.902C241.986 353.902 240.744 352.372 240.744 350.176C240.744 348.016 242.022 346.522 243.858 346.522C245.622 346.522 246.846 347.998 246.846 350.14C246.846 352.354 245.586 353.902 243.768 353.902ZM255.056 355.198C257.234 355.198 258.782 353.956 259.214 351.994H257.756C257.36 353.236 256.388 353.902 255.056 353.902C253.13 353.902 251.942 352.516 251.852 350.482H259.25V350.068C259.196 347.008 257.504 345.244 254.876 345.244C252.464 345.244 250.358 347.008 250.358 350.266C250.358 353.128 252.23 355.198 255.056 355.198ZM251.942 349.24C252.248 347.53 253.364 346.54 254.876 346.54C256.406 346.54 257.414 347.566 257.684 349.24H251.942ZM265.373 358.816C268.217 358.816 269.837 357.16 269.837 354.748V345.46H268.667L268.505 347.116C267.857 345.964 266.615 345.244 265.085 345.244C262.565 345.244 260.729 347.224 260.729 350.086C260.729 352.894 262.547 354.838 265.085 354.838C266.543 354.838 267.695 354.19 268.361 353.2V354.748C268.361 356.386 267.335 357.556 265.373 357.556C263.699 357.556 262.547 356.692 262.547 355.558H261.053C261.053 357.574 262.799 358.816 265.373 358.816ZM265.301 353.542C263.519 353.542 262.277 352.12 262.277 350.068C262.277 347.98 263.519 346.54 265.301 346.54C267.101 346.54 268.361 347.98 268.361 350.032C268.361 352.102 267.101 353.542 265.301 353.542ZM273.783 355V349.204C273.801 347.746 274.845 346.558 276.555 346.558C277.995 346.558 278.859 347.404 278.859 348.736V355H280.353V348.682C280.353 346.576 278.985 345.244 276.933 345.244C275.511 345.244 274.269 345.91 273.621 346.918L273.477 345.46H272.289V355H273.783ZM285.774 355.144C287.43 355.144 288.51 354.46 289.068 353.362V353.65C289.068 354.532 289.608 355 290.634 355H291.48V353.776H290.94C290.616 353.776 290.454 353.614 290.454 353.308V348.664C290.454 346.648 288.942 345.244 286.584 345.244C284.316 345.244 282.624 346.558 282.444 348.43H283.92C284.082 347.296 285.162 346.522 286.548 346.522C287.988 346.522 288.978 347.368 288.996 348.574C288.978 349.348 287.718 349.33 286.26 349.474C284.352 349.672 282.228 350.086 282.228 352.282C282.228 354.028 283.614 355.144 285.774 355.144ZM285.99 353.866C284.622 353.866 283.722 353.236 283.722 352.246C283.722 351.022 285.036 350.842 286.35 350.698C287.52 350.572 288.582 350.464 288.996 349.906V351.148C288.996 352.732 287.772 353.866 285.99 353.866Z" fill="#1C1B1F"/>
<path d="M211.559 299.198C214.799 299.216 216.581 297.164 216.581 294.77V286.4H215.069V294.734C215.069 296.732 213.485 297.794 211.559 297.794C209.633 297.794 208.049 296.732 208.049 294.734V286.4H206.537V294.77C206.537 297.164 208.301 299.198 211.559 299.198ZM220.718 299V293.204C220.736 291.746 221.78 290.558 223.562 290.558C224.84 290.558 225.632 291.386 225.632 292.664V299H227.108V293.204C227.126 291.746 228.17 290.558 229.952 290.558C231.23 290.558 232.022 291.386 232.022 292.664V299H233.516V292.61C233.516 290.666 232.22 289.244 230.204 289.244C228.746 289.244 227.432 290.018 226.82 291.134C226.334 289.982 225.254 289.244 223.814 289.244C222.446 289.244 221.204 289.91 220.556 290.936L220.412 289.46H219.224V299H220.718ZM240.749 299.198C243.269 299.198 245.033 297.146 245.033 294.176C245.033 291.26 243.269 289.244 240.749 289.244C239.309 289.244 238.103 289.91 237.401 290.954V285.5H235.907V299H237.095L237.257 297.182C237.905 298.424 239.183 299.198 240.749 299.198ZM240.515 297.902C238.697 297.902 237.401 296.336 237.401 294.104C237.401 291.998 238.697 290.54 240.497 290.54C242.279 290.54 243.485 292.034 243.485 294.176C243.485 296.372 242.279 297.902 240.515 297.902ZM248.491 299V293.996C248.491 292.034 249.661 290.882 251.677 290.882H252.001V289.406H251.677C250.093 289.406 248.977 290.054 248.365 291.278L248.185 289.46H246.997V299H248.491ZM254.468 287.858C255.098 287.858 255.566 287.372 255.566 286.742C255.566 286.112 255.098 285.644 254.468 285.644C253.838 285.644 253.352 286.112 253.352 286.742C253.352 287.372 253.838 287.858 254.468 287.858ZM255.206 299V289.46H253.712V299H255.206ZM260.728 299.144C262.384 299.144 263.464 298.46 264.022 297.362V297.65C264.022 298.532 264.562 299 265.588 299H266.434V297.776H265.894C265.57 297.776 265.408 297.614 265.408 297.308V292.664C265.408 290.648 263.896 289.244 261.538 289.244C259.27 289.244 257.578 290.558 257.398 292.43H258.874C259.036 291.296 260.116 290.522 261.502 290.522C262.942 290.522 263.932 291.368 263.95 292.574C263.932 293.348 262.672 293.33 261.214 293.474C259.306 293.672 257.182 294.086 257.182 296.282C257.182 298.028 258.568 299.144 260.728 299.144ZM260.944 297.866C259.576 297.866 258.676 297.236 258.676 296.246C258.676 295.022 259.99 294.842 261.304 294.698C262.474 294.572 263.536 294.464 263.95 293.906V295.148C263.95 296.732 262.726 297.866 260.944 297.866Z" fill="#1C1B1F"/>
<path d="M189.112 271V261.064L193.198 271H194.656L198.76 261.028V271H200.272V258.4H198.364L193.936 269.2L189.49 258.4H187.6V271H189.112ZM207.221 271.198C209.903 271.198 211.901 269.434 211.901 266.14C211.901 263.44 210.263 261.244 207.221 261.244C204.629 261.244 202.541 262.954 202.541 266.14C202.541 269.02 204.161 271.198 207.221 271.198ZM207.221 269.902C205.493 269.902 204.071 268.588 204.071 266.14C204.071 263.998 205.313 262.54 207.221 262.54C209.129 262.54 210.371 263.998 210.371 266.14C210.371 268.21 209.255 269.902 207.221 269.902ZM215.403 271V257.5H213.909V271H215.403ZM218.654 259.858C219.284 259.858 219.752 259.372 219.752 258.742C219.752 258.112 219.284 257.644 218.654 257.644C218.024 257.644 217.538 258.112 217.538 258.742C217.538 259.372 218.024 259.858 218.654 259.858ZM219.392 271V261.46H217.898V271H219.392ZM225.399 271.198C227.721 271.198 228.945 270.19 228.945 268.516C228.945 266.932 227.901 266.338 226.155 265.762L224.859 265.33C224.067 265.06 223.023 264.862 223.023 263.872C223.023 263.044 223.707 262.522 224.877 262.522C226.173 262.522 227.109 263.17 227.271 264.502H228.729C228.495 262.378 227.037 261.244 224.931 261.244C222.843 261.244 221.583 262.288 221.583 263.908C221.583 265.636 222.987 266.068 224.391 266.536L225.777 267.004C226.767 267.346 227.469 267.544 227.469 268.444C227.469 269.398 226.821 269.92 225.471 269.92C224.031 269.92 222.897 269.236 222.789 267.994H221.331C221.457 270.01 223.131 271.198 225.399 271.198ZM234.995 271.198C237.173 271.198 238.721 269.956 239.153 267.994H237.695C237.299 269.236 236.327 269.902 234.995 269.902C233.069 269.902 231.881 268.516 231.791 266.482H239.189V266.068C239.135 263.008 237.443 261.244 234.815 261.244C232.403 261.244 230.297 263.008 230.297 266.266C230.297 269.128 232.169 271.198 234.995 271.198ZM231.881 265.24C232.187 263.53 233.303 262.54 234.815 262.54C236.345 262.54 237.353 263.566 237.623 265.24H231.881Z" fill="#1C1B1F"/>
<path d="M104.315 19L109.067 6.4H107.465L103.505 16.912L99.4195 6.4H97.7995L102.695 19H104.315ZM112.956 19.144C114.612 19.144 115.692 18.46 116.25 17.362V17.65C116.25 18.532 116.79 19 117.816 19H118.662V17.776H118.122C117.798 17.776 117.636 17.614 117.636 17.308V12.664C117.636 10.648 116.124 9.244 113.766 9.244C111.498 9.244 109.806 10.558 109.626 12.43H111.102C111.264 11.296 112.344 10.522 113.73 10.522C115.17 10.522 116.16 11.368 116.178 12.574C116.16 13.348 114.9 13.33 113.442 13.474C111.534 13.672 109.41 14.086 109.41 16.282C109.41 18.028 110.796 19.144 112.956 19.144ZM113.172 17.866C111.804 17.866 110.904 17.236 110.904 16.246C110.904 15.022 112.218 14.842 113.532 14.698C114.702 14.572 115.764 14.464 116.178 13.906V15.148C116.178 16.732 114.954 17.866 113.172 17.866ZM121.885 19V5.5H120.391V19H121.885ZM125.928 19V5.5H124.434V19H125.928ZM132.635 19.198C134.813 19.198 136.361 17.956 136.793 15.994H135.335C134.939 17.236 133.967 17.902 132.635 17.902C130.709 17.902 129.521 16.516 129.431 14.482H136.829V14.068C136.775 11.008 135.083 9.244 132.455 9.244C130.043 9.244 127.937 11.008 127.937 14.266C127.937 17.128 129.809 19.198 132.635 19.198ZM129.521 13.24C129.827 11.53 130.943 10.54 132.455 10.54C133.985 10.54 134.993 11.566 135.263 13.24H129.521ZM146.689 19.198C148.255 19.198 149.515 18.406 150.145 17.164L150.307 19H151.495V5.5H150.001V10.882C149.317 9.874 148.111 9.244 146.671 9.244C144.115 9.244 142.351 11.26 142.351 14.176C142.351 17.146 144.133 19.198 146.689 19.198ZM146.923 17.902C145.141 17.902 143.899 16.372 143.899 14.176C143.899 12.016 145.177 10.522 147.013 10.522C148.777 10.522 150.001 11.998 150.001 14.14C150.001 16.354 148.741 17.902 146.923 17.902ZM156.879 5.482L155.601 5.086L153.711 11.116L154.917 11.494L156.879 5.482ZM157.183 19L158.659 15.4H164.491L165.967 19H167.533L162.331 6.4H160.801L155.617 19H157.183ZM161.575 8.326L163.915 14.032H159.235L161.575 8.326ZM173.1 19.198C175.782 19.198 177.78 17.434 177.78 14.14C177.78 11.44 176.142 9.244 173.1 9.244C170.508 9.244 168.42 10.954 168.42 14.14C168.42 17.02 170.04 19.198 173.1 19.198ZM173.1 17.902C171.372 17.902 169.95 16.588 169.95 14.14C169.95 11.998 171.192 10.54 173.1 10.54C175.008 10.54 176.25 11.998 176.25 14.14C176.25 16.21 175.134 17.902 173.1 17.902ZM183.298 19.198C185.62 19.198 186.844 18.19 186.844 16.516C186.844 14.932 185.8 14.338 184.054 13.762L182.758 13.33C181.966 13.06 180.922 12.862 180.922 11.872C180.922 11.044 181.606 10.522 182.776 10.522C184.072 10.522 185.008 11.17 185.17 12.502H186.628C186.394 10.378 184.936 9.244 182.83 9.244C180.742 9.244 179.482 10.288 179.482 11.908C179.482 13.636 180.886 14.068 182.29 14.536L183.676 15.004C184.666 15.346 185.368 15.544 185.368 16.444C185.368 17.398 184.72 17.92 183.37 17.92C181.93 17.92 180.796 17.236 180.688 15.994H179.23C179.356 18.01 181.03 19.198 183.298 19.198ZM193.403 19V17.74H192.341C191.459 17.74 190.991 17.236 190.991 16.282V10.72H193.565V9.46H190.991V6.202H189.497V9.46H187.733V10.72H189.497V16.282C189.497 18.046 190.487 19 192.341 19H193.403ZM198.404 19.144C200.06 19.144 201.14 18.46 201.698 17.362V17.65C201.698 18.532 202.238 19 203.264 19H204.11V17.776H203.57C203.246 17.776 203.084 17.614 203.084 17.308V12.664C203.084 10.648 201.572 9.244 199.214 9.244C196.946 9.244 195.254 10.558 195.074 12.43H196.55C196.712 11.296 197.792 10.522 199.178 10.522C200.618 10.522 201.608 11.368 201.626 12.574C201.608 13.348 200.348 13.33 198.89 13.474C196.982 13.672 194.858 14.086 194.858 16.282C194.858 18.028 196.244 19.144 198.404 19.144ZM198.62 17.866C197.252 17.866 196.352 17.236 196.352 16.246C196.352 15.022 197.666 14.842 198.98 14.698C200.15 14.572 201.212 14.464 201.626 13.906V15.148C201.626 16.732 200.402 17.866 198.62 17.866Z" fill="#1C1B1F"/>
<path d="M134.23 47L138.982 34.4H137.38L133.42 44.912L129.334 34.4H127.714L132.61 47H134.23ZM143.689 47.198C145.867 47.198 147.415 45.956 147.847 43.994H146.389C145.993 45.236 145.021 45.902 143.689 45.902C141.763 45.902 140.575 44.516 140.485 42.482H147.883V42.068C147.829 39.008 146.137 37.244 143.509 37.244C141.097 37.244 138.991 39.008 138.991 42.266C138.991 45.128 140.863 47.198 143.689 47.198ZM140.575 41.24C140.881 39.53 141.997 38.54 143.509 38.54C145.039 38.54 146.047 39.566 146.317 41.24H140.575ZM151.342 47V41.204C151.36 39.746 152.404 38.558 154.114 38.558C155.554 38.558 156.418 39.404 156.418 40.736V47H157.912V40.682C157.912 38.576 156.544 37.244 154.492 37.244C153.07 37.244 151.828 37.91 151.18 38.918L151.036 37.46H149.848V47H151.342ZM164.466 47.198C166.644 47.198 168.192 45.956 168.624 43.994H167.166C166.77 45.236 165.798 45.902 164.466 45.902C162.54 45.902 161.352 44.516 161.262 42.482H168.66V42.068C168.606 39.008 166.914 37.244 164.286 37.244C161.874 37.244 159.768 39.008 159.768 42.266C159.768 45.128 161.64 47.198 164.466 47.198ZM161.352 41.24C161.658 39.53 162.774 38.54 164.286 38.54C165.816 38.54 166.824 39.566 167.094 41.24H161.352ZM175.347 47V45.74H174.285C173.403 45.74 172.935 45.236 172.935 44.282V38.72H175.509V37.46H172.935V34.202H171.441V37.46H169.677V38.72H171.441V44.282C171.441 46.046 172.431 47 174.285 47H175.347ZM181.235 47.198C183.917 47.198 185.915 45.434 185.915 42.14C185.915 39.44 184.277 37.244 181.235 37.244C178.643 37.244 176.555 38.954 176.555 42.14C176.555 45.02 178.175 47.198 181.235 47.198ZM181.235 45.902C179.507 45.902 178.085 44.588 178.085 42.14C178.085 39.998 179.327 38.54 181.235 38.54C183.143 38.54 184.385 39.998 184.385 42.14C184.385 44.21 183.269 45.902 181.235 45.902Z" fill="#1C1B1F"/>
<path d="M131.431 75V69.258H137.965V67.872H131.431V63.786H138.505V62.4H129.919V75H131.431ZM141.97 75V69.996C141.97 68.034 143.14 66.882 145.156 66.882H145.48V65.406H145.156C143.572 65.406 142.456 66.054 141.844 67.278L141.664 65.46H140.476V75H141.97ZM147.947 63.858C148.577 63.858 149.045 63.372 149.045 62.742C149.045 62.112 148.577 61.644 147.947 61.644C147.317 61.644 146.831 62.112 146.831 62.742C146.831 63.372 147.317 63.858 147.947 63.858ZM148.685 75V65.46H147.191V75H148.685ZM154.602 75.198C155.916 75.198 157.068 74.64 157.698 73.56L157.824 75H159.012V65.46H157.518V71.256C157.5 72.696 156.528 73.884 154.746 73.884C153.396 73.884 152.442 73.146 152.442 71.778V65.46H150.948V71.832C150.948 73.776 152.28 75.198 154.602 75.198ZM163.012 75V61.5H161.518V75H163.012ZM166.263 63.858C166.893 63.858 167.361 63.372 167.361 62.742C167.361 62.112 166.893 61.644 166.263 61.644C165.633 61.644 165.147 62.112 165.147 62.742C165.147 63.372 165.633 63.858 166.263 63.858ZM167.001 75V65.46H165.507V75H167.001ZM176.735 70.032V68.772H169.031V70.032H176.735ZM183.956 75L188.708 62.4H187.106L183.146 72.912L179.06 62.4H177.44L182.336 75H183.956ZM193.415 75.198C195.593 75.198 197.141 73.956 197.573 71.994H196.115C195.719 73.236 194.747 73.902 193.415 73.902C191.489 73.902 190.301 72.516 190.211 70.482H197.609V70.068C197.555 67.008 195.863 65.244 193.235 65.244C190.823 65.244 188.717 67.008 188.717 70.266C188.717 73.128 190.589 75.198 193.415 75.198ZM190.301 69.24C190.607 67.53 191.723 66.54 193.235 66.54C194.765 66.54 195.773 67.566 196.043 69.24H190.301ZM201.068 75V69.204C201.086 67.746 202.13 66.558 203.84 66.558C205.28 66.558 206.144 67.404 206.144 68.736V75H207.638V68.682C207.638 66.576 206.27 65.244 204.218 65.244C202.796 65.244 201.554 65.91 200.906 66.918L200.762 65.46H199.574V75H201.068ZM214.192 75.198C216.37 75.198 217.918 73.956 218.35 71.994H216.892C216.496 73.236 215.524 73.902 214.192 73.902C212.266 73.902 211.078 72.516 210.988 70.482H218.386V70.068C218.332 67.008 216.64 65.244 214.012 65.244C211.6 65.244 209.494 67.008 209.494 70.266C209.494 73.128 211.366 75.198 214.192 75.198ZM211.078 69.24C211.384 67.53 212.5 66.54 214.012 66.54C215.542 66.54 216.55 67.566 216.82 69.24H211.078ZM227.371 75V73.65H221.683L227.299 66.81V65.46H220.135V66.81H225.589L219.973 73.65V75H227.371ZM230.195 63.858C230.825 63.858 231.293 63.372 231.293 62.742C231.293 62.112 230.825 61.644 230.195 61.644C229.565 61.644 229.079 62.112 229.079 62.742C229.079 63.372 229.565 63.858 230.195 63.858ZM230.933 75V65.46H229.439V75H230.933ZM236.454 75.144C238.11 75.144 239.19 74.46 239.748 73.362V73.65C239.748 74.532 240.288 75 241.314 75H242.16V73.776H241.62C241.296 73.776 241.134 73.614 241.134 73.308V68.664C241.134 66.648 239.622 65.244 237.264 65.244C234.996 65.244 233.304 66.558 233.124 68.43H234.6C234.762 67.296 235.842 66.522 237.228 66.522C238.668 66.522 239.658 67.368 239.676 68.574C239.658 69.348 238.398 69.33 236.94 69.474C235.032 69.672 232.908 70.086 232.908 72.282C232.908 74.028 234.294 75.144 236.454 75.144ZM236.67 73.866C235.302 73.866 234.402 73.236 234.402 72.246C234.402 71.022 235.716 70.842 237.03 70.698C238.2 70.572 239.262 70.464 239.676 69.906V71.148C239.676 72.732 238.452 73.866 236.67 73.866Z" fill="#1C1B1F"/>
<path d="M140.807 103V101.614H134.057V90.4H132.545V103H140.807ZM143.506 91.858C144.136 91.858 144.604 91.372 144.604 90.742C144.604 90.112 144.136 89.644 143.506 89.644C142.876 89.644 142.39 90.112 142.39 90.742C142.39 91.372 142.876 91.858 143.506 91.858ZM144.244 103V93.46H142.75V103H144.244ZM150.846 106.816C153.69 106.816 155.31 105.16 155.31 102.748V93.46H154.14L153.978 95.116C153.33 93.964 152.088 93.244 150.558 93.244C148.038 93.244 146.202 95.224 146.202 98.086C146.202 100.894 148.02 102.838 150.558 102.838C152.016 102.838 153.168 102.19 153.834 101.2V102.748C153.834 104.386 152.808 105.556 150.846 105.556C149.172 105.556 148.02 104.692 148.02 103.558H146.526C146.526 105.574 148.272 106.816 150.846 106.816ZM150.774 101.542C148.992 101.542 147.75 100.12 147.75 98.068C147.75 95.98 148.992 94.54 150.774 94.54C152.574 94.54 153.834 95.98 153.834 98.032C153.834 100.102 152.574 101.542 150.774 101.542ZM161.236 103.198C162.55 103.198 163.702 102.64 164.332 101.56L164.458 103H165.646V93.46H164.152V99.256C164.134 100.696 163.162 101.884 161.38 101.884C160.03 101.884 159.076 101.146 159.076 99.778V93.46H157.582V99.832C157.582 101.776 158.914 103.198 161.236 103.198ZM169.592 103V97.996C169.592 96.034 170.762 94.882 172.778 94.882H173.102V93.406H172.778C171.194 93.406 170.078 94.054 169.466 95.278L169.286 93.46H168.098V103H169.592ZM175.569 91.858C176.199 91.858 176.667 91.372 176.667 90.742C176.667 90.112 176.199 89.644 175.569 89.644C174.939 89.644 174.453 90.112 174.453 90.742C174.453 91.372 174.939 91.858 175.569 91.858ZM176.307 103V93.46H174.813V103H176.307ZM181.828 103.144C183.484 103.144 184.564 102.46 185.122 101.362V101.65C185.122 102.532 185.662 103 186.688 103H187.534V101.776H186.994C186.67 101.776 186.508 101.614 186.508 101.308V96.664C186.508 94.648 184.996 93.244 182.638 93.244C180.37 93.244 178.678 94.558 178.498 96.43H179.974C180.136 95.296 181.216 94.522 182.602 94.522C184.042 94.522 185.032 95.368 185.05 96.574C185.032 97.348 183.772 97.33 182.314 97.474C180.406 97.672 178.282 98.086 178.282 100.282C178.282 102.028 179.668 103.144 181.828 103.144ZM182.044 101.866C180.676 101.866 179.776 101.236 179.776 100.246C179.776 99.022 181.09 98.842 182.404 98.698C183.574 98.572 184.636 98.464 185.05 97.906V99.148C185.05 100.732 183.826 101.866 182.044 101.866Z" fill="#1C1B1F"/>
<path d="M140.553 131V129.614H133.281V125.114H139.671V123.764H133.281V119.786H140.391V118.4H131.787V131H140.553ZM144.155 131V125.204C144.173 123.746 145.217 122.558 146.999 122.558C148.277 122.558 149.069 123.386 149.069 124.664V131H150.545V125.204C150.563 123.746 151.607 122.558 153.389 122.558C154.667 122.558 155.459 123.386 155.459 124.664V131H156.953V124.61C156.953 122.666 155.657 121.244 153.641 121.244C152.183 121.244 150.869 122.018 150.257 123.134C149.771 121.982 148.691 121.244 147.251 121.244C145.883 121.244 144.641 121.91 143.993 122.936L143.849 121.46H142.661V131H144.155ZM160.045 119.858C160.675 119.858 161.143 119.372 161.143 118.742C161.143 118.112 160.675 117.644 160.045 117.644C159.415 117.644 158.929 118.112 158.929 118.742C158.929 119.372 159.415 119.858 160.045 119.858ZM160.783 131V121.46H159.289V131H160.783ZM164.775 131V117.5H163.281V131H164.775ZM168.026 119.858C168.656 119.858 169.124 119.372 169.124 118.742C169.124 118.112 168.656 117.644 168.026 117.644C167.396 117.644 166.91 118.112 166.91 118.742C166.91 119.372 167.396 119.858 168.026 119.858ZM168.764 131V121.46H167.27V131H168.764ZM174.285 131.144C175.941 131.144 177.021 130.46 177.579 129.362V129.65C177.579 130.532 178.119 131 179.145 131H179.991V129.776H179.451C179.127 129.776 178.965 129.614 178.965 129.308V124.664C178.965 122.648 177.453 121.244 175.095 121.244C172.827 121.244 171.135 122.558 170.955 124.43H172.431C172.593 123.296 173.673 122.522 175.059 122.522C176.499 122.522 177.489 123.368 177.507 124.574C177.489 125.348 176.229 125.33 174.771 125.474C172.863 125.672 170.739 126.086 170.739 128.282C170.739 130.028 172.125 131.144 174.285 131.144ZM174.501 129.866C173.133 129.866 172.233 129.236 172.233 128.246C172.233 127.022 173.547 126.842 174.861 126.698C176.031 126.572 177.093 126.464 177.507 125.906V127.148C177.507 128.732 176.283 129.866 174.501 129.866ZM188.956 126.032V124.772H181.252V126.032H188.956ZM192.801 131V125.798H197.157C197.751 125.798 198.183 126.086 198.381 126.626L200.001 131H201.621L199.875 126.356C199.641 125.726 199.173 125.294 198.507 125.114C200.037 124.628 201.045 123.368 201.045 121.874C201.045 119.822 199.407 118.4 197.031 118.4H191.289V131H192.801ZM192.801 119.786H197.103C198.471 119.786 199.515 120.542 199.515 122.018C199.515 123.368 198.669 124.448 197.103 124.448H192.801V119.786ZM207.306 131.198C209.988 131.198 211.986 129.434 211.986 126.14C211.986 123.44 210.348 121.244 207.306 121.244C204.714 121.244 202.626 122.954 202.626 126.14C202.626 129.02 204.246 131.198 207.306 131.198ZM207.306 129.902C205.578 129.902 204.156 128.588 204.156 126.14C204.156 123.998 205.398 122.54 207.306 122.54C209.214 122.54 210.456 123.998 210.456 126.14C210.456 128.21 209.34 129.902 207.306 129.902ZM215.434 131V125.204C215.452 123.746 216.496 122.558 218.278 122.558C219.556 122.558 220.348 123.386 220.348 124.664V131H221.824V125.204C221.842 123.746 222.886 122.558 224.668 122.558C225.946 122.558 226.738 123.386 226.738 124.664V131H228.232V124.61C228.232 122.666 226.936 121.244 224.92 121.244C223.462 121.244 222.148 122.018 221.536 123.134C221.05 121.982 219.97 121.244 218.53 121.244C217.162 121.244 215.92 121.91 215.272 122.936L215.128 121.46H213.94V131H215.434ZM233.647 131.144C235.303 131.144 236.383 130.46 236.941 129.362V129.65C236.941 130.532 237.481 131 238.507 131H239.353V129.776H238.813C238.489 129.776 238.327 129.614 238.327 129.308V124.664C238.327 122.648 236.815 121.244 234.457 121.244C232.189 121.244 230.497 122.558 230.317 124.43H231.793C231.955 123.296 233.035 122.522 234.421 122.522C235.861 122.522 236.851 123.368 236.869 124.574C236.851 125.348 235.591 125.33 234.133 125.474C232.225 125.672 230.101 126.086 230.101 128.282C230.101 130.028 231.487 131.144 233.647 131.144ZM233.863 129.866C232.495 129.866 231.595 129.236 231.595 128.246C231.595 127.022 232.909 126.842 234.223 126.698C235.393 126.572 236.455 126.464 236.869 125.906V127.148C236.869 128.732 235.645 129.866 233.863 129.866ZM245.186 134.816C248.03 134.816 249.65 133.16 249.65 130.748V121.46H248.48L248.318 123.116C247.67 121.964 246.428 121.244 244.898 121.244C242.378 121.244 240.542 123.224 240.542 126.086C240.542 128.894 242.36 130.838 244.898 130.838C246.356 130.838 247.508 130.19 248.174 129.2V130.748C248.174 132.386 247.148 133.556 245.186 133.556C243.512 133.556 242.36 132.692 242.36 131.558H240.866C240.866 133.574 242.612 134.816 245.186 134.816ZM245.114 129.542C243.332 129.542 242.09 128.12 242.09 126.068C242.09 123.98 243.332 122.54 245.114 122.54C246.914 122.54 248.174 123.98 248.174 126.032C248.174 128.102 246.914 129.542 245.114 129.542ZM253.596 131V125.204C253.614 123.746 254.658 122.558 256.368 122.558C257.808 122.558 258.672 123.404 258.672 124.736V131H260.166V124.682C260.166 122.576 258.798 121.244 256.746 121.244C255.324 121.244 254.082 121.91 253.434 122.918L253.29 121.46H252.102V131H253.596ZM265.586 131.144C267.242 131.144 268.322 130.46 268.88 129.362V129.65C268.88 130.532 269.42 131 270.446 131H271.292V129.776H270.752C270.428 129.776 270.266 129.614 270.266 129.308V124.664C270.266 122.648 268.754 121.244 266.396 121.244C264.128 121.244 262.436 122.558 262.256 124.43H263.732C263.894 123.296 264.974 122.522 266.36 122.522C267.8 122.522 268.79 123.368 268.808 124.574C268.79 125.348 267.53 125.33 266.072 125.474C264.164 125.672 262.04 126.086 262.04 128.282C262.04 130.028 263.426 131.144 265.586 131.144ZM265.802 129.866C264.434 129.866 263.534 129.236 263.534 128.246C263.534 127.022 264.848 126.842 266.162 126.698C267.332 126.572 268.394 126.464 268.808 125.906V127.148C268.808 128.732 267.584 129.866 265.802 129.866Z" fill="#1C1B1F"/>
<path d="M164.793 159V147.786H169.149V146.4H158.925V147.786H163.281V159H164.793ZM171.015 159V153.996C171.015 152.034 172.185 150.882 174.201 150.882H174.525V149.406H174.201C172.617 149.406 171.501 150.054 170.889 151.278L170.709 149.46H169.521V159H171.015ZM180.008 159.198C182.186 159.198 183.734 157.956 184.166 155.994H182.708C182.312 157.236 181.34 157.902 180.008 157.902C178.082 157.902 176.894 156.516 176.804 154.482H184.202V154.068C184.148 151.008 182.456 149.244 179.828 149.244C177.416 149.244 175.31 151.008 175.31 154.266C175.31 157.128 177.182 159.198 180.008 159.198ZM176.894 153.24C177.2 151.53 178.316 150.54 179.828 150.54C181.358 150.54 182.366 151.566 182.636 153.24H176.894ZM187.661 159V153.204C187.679 151.746 188.723 150.558 190.433 150.558C191.873 150.558 192.737 151.404 192.737 152.736V159H194.231V152.682C194.231 150.576 192.863 149.244 190.811 149.244C189.389 149.244 188.147 149.91 187.499 150.918L187.355 149.46H186.167V159H187.661ZM201.366 159V157.74H200.304C199.422 157.74 198.954 157.236 198.954 156.282V150.72H201.528V149.46H198.954V146.202H197.46V149.46H195.696V150.72H197.46V156.282C197.46 158.046 198.45 159 200.304 159H201.366ZM204.044 147.858C204.674 147.858 205.142 147.372 205.142 146.742C205.142 146.112 204.674 145.644 204.044 145.644C203.414 145.644 202.928 146.112 202.928 146.742C202.928 147.372 203.414 147.858 204.044 147.858ZM204.782 159V149.46H203.288V159H204.782ZM208.72 159V153.204C208.738 151.746 209.782 150.558 211.492 150.558C212.932 150.558 213.796 151.404 213.796 152.736V159H215.29V152.682C215.29 150.576 213.922 149.244 211.87 149.244C210.448 149.244 209.206 149.91 208.558 150.918L208.414 149.46H207.226V159H208.72ZM221.826 159.198C224.508 159.198 226.506 157.434 226.506 154.14C226.506 151.44 224.868 149.244 221.826 149.244C219.234 149.244 217.146 150.954 217.146 154.14C217.146 157.02 218.766 159.198 221.826 159.198ZM221.826 157.902C220.098 157.902 218.676 156.588 218.676 154.14C218.676 151.998 219.918 150.54 221.826 150.54C223.734 150.54 224.976 151.998 224.976 154.14C224.976 156.21 223.86 157.902 221.826 157.902ZM235.75 154.032V152.772H228.046V154.032H235.75ZM238.166 159L239.642 155.4H245.474L246.95 159H248.516L243.314 146.4H241.784L236.6 159H238.166ZM242.558 148.326L244.898 154.032H240.218L242.558 148.326ZM251.788 159V145.5H250.294V159H251.788ZM259.251 159V157.74H258.189C257.307 157.74 256.839 157.236 256.839 156.282V150.72H259.413V149.46H256.839V146.202H255.345V149.46H253.581V150.72H255.345V156.282C255.345 158.046 256.335 159 258.189 159H259.251ZM265.139 159.198C267.821 159.198 269.819 157.434 269.819 154.14C269.819 151.44 268.181 149.244 265.139 149.244C262.547 149.244 260.459 150.954 260.459 154.14C260.459 157.02 262.079 159.198 265.139 159.198ZM265.139 157.902C263.411 157.902 261.989 156.588 261.989 154.14C261.989 151.998 263.231 150.54 265.139 150.54C267.047 150.54 268.289 151.998 268.289 154.14C268.289 156.21 267.173 157.902 265.139 157.902ZM276.662 159L278.138 155.4H283.97L285.446 159H287.012L281.81 146.4H280.28L275.096 159H276.662ZM281.054 148.326L283.394 154.032H278.714L281.054 148.326ZM292.236 159.198C293.802 159.198 295.062 158.406 295.692 157.164L295.854 159H297.042V145.5H295.548V150.882C294.864 149.874 293.658 149.244 292.218 149.244C289.662 149.244 287.898 151.26 287.898 154.176C287.898 157.146 289.68 159.198 292.236 159.198ZM292.47 157.902C290.688 157.902 289.446 156.372 289.446 154.176C289.446 152.016 290.724 150.522 292.56 150.522C294.324 150.522 295.548 151.998 295.548 154.14C295.548 156.354 294.288 157.902 292.47 157.902ZM300.302 147.858C300.932 147.858 301.4 147.372 301.4 146.742C301.4 146.112 300.932 145.644 300.302 145.644C299.672 145.644 299.186 146.112 299.186 146.742C299.186 147.372 299.672 147.858 300.302 147.858ZM301.04 159V149.46H299.546V159H301.04ZM307.642 162.816C310.486 162.816 312.106 161.16 312.106 158.748V149.46H310.936L310.774 151.116C310.126 149.964 308.884 149.244 307.354 149.244C304.834 149.244 302.998 151.224 302.998 154.086C302.998 156.894 304.816 158.838 307.354 158.838C308.812 158.838 309.964 158.19 310.63 157.2V158.748C310.63 160.386 309.604 161.556 307.642 161.556C305.968 161.556 304.816 160.692 304.816 159.558H303.322C303.322 161.574 305.068 162.816 307.642 162.816ZM307.57 157.542C305.788 157.542 304.546 156.12 304.546 154.068C304.546 151.98 305.788 150.54 307.57 150.54C309.37 150.54 310.63 151.98 310.63 154.032C310.63 156.102 309.37 157.542 307.57 157.542ZM318.77 159.198C320.948 159.198 322.496 157.956 322.928 155.994H321.47C321.074 157.236 320.102 157.902 318.77 157.902C316.844 157.902 315.656 156.516 315.566 154.482H322.964V154.068C322.91 151.008 321.218 149.244 318.59 149.244C316.178 149.244 314.072 151.008 314.072 154.266C314.072 157.128 315.944 159.198 318.77 159.198ZM315.656 153.24C315.962 151.53 317.078 150.54 318.59 150.54C320.12 150.54 321.128 151.566 321.398 153.24H315.656Z" fill="#1C1B1F"/>
<path d="M167.089 187V185.614H160.339V174.4H158.827V187H167.089ZM173.227 187.198C175.909 187.198 177.907 185.434 177.907 182.14C177.907 179.44 176.269 177.244 173.227 177.244C170.635 177.244 168.547 178.954 168.547 182.14C168.547 185.02 170.167 187.198 173.227 187.198ZM173.227 185.902C171.499 185.902 170.077 184.588 170.077 182.14C170.077 179.998 171.319 178.54 173.227 178.54C175.135 178.54 176.377 179.998 176.377 182.14C176.377 184.21 175.261 185.902 173.227 185.902ZM181.355 187V181.204C181.373 179.746 182.417 178.558 184.199 178.558C185.477 178.558 186.269 179.386 186.269 180.664V187H187.745V181.204C187.763 179.746 188.807 178.558 190.589 178.558C191.867 178.558 192.659 179.386 192.659 180.664V187H194.153V180.61C194.153 178.666 192.857 177.244 190.841 177.244C189.383 177.244 188.069 178.018 187.457 179.134C186.971 177.982 185.891 177.244 184.451 177.244C183.083 177.244 181.841 177.91 181.193 178.936L181.049 177.46H179.861V187H181.355ZM201.386 187.198C203.906 187.198 205.67 185.146 205.67 182.176C205.67 179.26 203.906 177.244 201.386 177.244C199.946 177.244 198.74 177.91 198.038 178.954V173.5H196.544V187H197.732L197.894 185.182C198.542 186.424 199.82 187.198 201.386 187.198ZM201.152 185.902C199.334 185.902 198.038 184.336 198.038 182.104C198.038 179.998 199.334 178.54 201.134 178.54C202.916 178.54 204.122 180.034 204.122 182.176C204.122 184.372 202.916 185.902 201.152 185.902ZM210.712 187.144C212.368 187.144 213.448 186.46 214.006 185.362V185.65C214.006 186.532 214.546 187 215.572 187H216.418V185.776H215.878C215.554 185.776 215.392 185.614 215.392 185.308V180.664C215.392 178.648 213.88 177.244 211.522 177.244C209.254 177.244 207.562 178.558 207.382 180.43H208.858C209.02 179.296 210.1 178.522 211.486 178.522C212.926 178.522 213.916 179.368 213.934 180.574C213.916 181.348 212.656 181.33 211.198 181.474C209.29 181.672 207.166 182.086 207.166 184.282C207.166 186.028 208.552 187.144 210.712 187.144ZM210.928 185.866C209.56 185.866 208.66 185.236 208.66 184.246C208.66 183.022 209.974 182.842 211.288 182.698C212.458 182.572 213.52 182.464 213.934 181.906V183.148C213.934 184.732 212.71 185.866 210.928 185.866ZM219.587 187V181.996C219.587 180.034 220.757 178.882 222.773 178.882H223.097V177.406H222.773C221.189 177.406 220.073 178.054 219.461 179.278L219.281 177.46H218.093V187H219.587ZM228.221 187.198C229.787 187.198 231.047 186.406 231.677 185.164L231.839 187H233.027V173.5H231.533V178.882C230.849 177.874 229.643 177.244 228.203 177.244C225.647 177.244 223.883 179.26 223.883 182.176C223.883 185.146 225.665 187.198 228.221 187.198ZM228.455 185.902C226.673 185.902 225.431 184.372 225.431 182.176C225.431 180.016 226.709 178.522 228.545 178.522C230.309 178.522 231.533 179.998 231.533 182.14C231.533 184.354 230.273 185.902 228.455 185.902ZM236.287 175.858C236.917 175.858 237.385 175.372 237.385 174.742C237.385 174.112 236.917 173.644 236.287 173.644C235.657 173.644 235.171 174.112 235.171 174.742C235.171 175.372 235.657 175.858 236.287 175.858ZM237.025 187V177.46H235.531V187H237.025ZM242.546 187.144C244.202 187.144 245.282 186.46 245.84 185.362V185.65C245.84 186.532 246.38 187 247.406 187H248.252V185.776H247.712C247.388 185.776 247.226 185.614 247.226 185.308V180.664C247.226 178.648 245.714 177.244 243.356 177.244C241.088 177.244 239.396 178.558 239.216 180.43H240.692C240.854 179.296 241.934 178.522 243.32 178.522C244.76 178.522 245.75 179.368 245.768 180.574C245.75 181.348 244.49 181.33 243.032 181.474C241.124 181.672 239 182.086 239 184.282C239 186.028 240.386 187.144 242.546 187.144ZM242.762 185.866C241.394 185.866 240.494 185.236 240.494 184.246C240.494 183.022 241.808 182.842 243.122 182.698C244.292 182.572 245.354 182.464 245.768 181.906V183.148C245.768 184.732 244.544 185.866 242.762 185.866Z" fill="#1C1B1F"/>
<path d="M215.609 327C217.895 327 219.479 325.596 219.479 323.562C219.479 322.014 218.399 320.826 216.761 320.502C218.237 320.034 219.191 318.918 219.191 317.568C219.191 315.696 217.661 314.4 215.465 314.4H209.687V327H215.609ZM211.181 315.786H215.609C216.815 315.786 217.661 316.578 217.661 317.73C217.661 319.008 216.725 319.908 215.375 319.908H211.181V315.786ZM211.181 321.258H215.465C216.815 321.258 217.913 321.996 217.913 323.4C217.913 324.714 217.031 325.614 215.771 325.614H211.181V321.258ZM224.711 327.144C226.367 327.144 227.447 326.46 228.005 325.362V325.65C228.005 326.532 228.545 327 229.571 327H230.417V325.776H229.877C229.553 325.776 229.391 325.614 229.391 325.308V320.664C229.391 318.648 227.879 317.244 225.521 317.244C223.253 317.244 221.561 318.558 221.381 320.43H222.857C223.019 319.296 224.099 318.522 225.485 318.522C226.925 318.522 227.915 319.368 227.933 320.574C227.915 321.348 226.655 321.33 225.197 321.474C223.289 321.672 221.165 322.086 221.165 324.282C221.165 326.028 222.551 327.144 224.711 327.144ZM224.927 325.866C223.559 325.866 222.659 325.236 222.659 324.246C222.659 323.022 223.973 322.842 225.287 322.698C226.457 322.572 227.519 322.464 227.933 321.906V323.148C227.933 324.732 226.709 325.866 224.927 325.866ZM235.656 327.198C237.978 327.198 239.202 326.19 239.202 324.516C239.202 322.932 238.158 322.338 236.412 321.762L235.116 321.33C234.324 321.06 233.28 320.862 233.28 319.872C233.28 319.044 233.964 318.522 235.134 318.522C236.43 318.522 237.366 319.17 237.528 320.502H238.986C238.752 318.378 237.294 317.244 235.188 317.244C233.1 317.244 231.84 318.288 231.84 319.908C231.84 321.636 233.244 322.068 234.648 322.536L236.034 323.004C237.024 323.346 237.726 323.544 237.726 324.444C237.726 325.398 237.078 325.92 235.728 325.92C234.288 325.92 233.154 325.236 233.046 323.994H231.588C231.714 326.01 233.388 327.198 235.656 327.198ZM241.795 315.858C242.425 315.858 242.893 315.372 242.893 314.742C242.893 314.112 242.425 313.644 241.795 313.644C241.165 313.644 240.679 314.112 240.679 314.742C240.679 315.372 241.165 315.858 241.795 315.858ZM242.533 327V317.46H241.039V327H242.533ZM246.525 327V313.5H245.031V327H246.525ZM249.776 315.858C250.406 315.858 250.874 315.372 250.874 314.742C250.874 314.112 250.406 313.644 249.776 313.644C249.146 313.644 248.66 314.112 248.66 314.742C248.66 315.372 249.146 315.858 249.776 315.858ZM250.514 327V317.46H249.02V327H250.514ZM257.223 327.198C259.689 327.198 261.273 325.74 261.543 323.274H260.085C259.815 324.93 258.771 325.902 257.241 325.902C255.459 325.902 253.983 324.606 253.983 322.176C253.983 319.926 255.243 318.54 257.133 318.54C258.735 318.54 259.833 319.548 260.085 321.132H261.543C261.273 318.684 259.563 317.244 257.169 317.244C254.577 317.244 252.471 318.972 252.471 322.176C252.471 324.93 254.127 327.198 257.223 327.198ZM266.582 327.144C268.238 327.144 269.318 326.46 269.876 325.362V325.65C269.876 326.532 270.416 327 271.442 327H272.288V325.776H271.748C271.424 325.776 271.262 325.614 271.262 325.308V320.664C271.262 318.648 269.75 317.244 267.392 317.244C265.124 317.244 263.432 318.558 263.252 320.43H264.728C264.89 319.296 265.97 318.522 267.356 318.522C268.796 318.522 269.786 319.368 269.804 320.574C269.786 321.348 268.526 321.33 267.068 321.474C265.16 321.672 263.036 322.086 263.036 324.282C263.036 326.028 264.422 327.144 266.582 327.144ZM266.798 325.866C265.43 325.866 264.53 325.236 264.53 324.246C264.53 323.022 265.844 322.842 267.158 322.698C268.328 322.572 269.39 322.464 269.804 321.906V323.148C269.804 324.732 268.58 325.866 266.798 325.866ZM278.685 327V325.74H277.623C276.741 325.74 276.273 325.236 276.273 324.282V318.72H278.847V317.46H276.273V314.202H274.779V317.46H273.015V318.72H274.779V324.282C274.779 326.046 275.769 327 277.623 327H278.685ZM283.686 327.144C285.342 327.144 286.422 326.46 286.98 325.362V325.65C286.98 326.532 287.52 327 288.546 327H289.392V325.776H288.852C288.528 325.776 288.366 325.614 288.366 325.308V320.664C288.366 318.648 286.854 317.244 284.496 317.244C282.228 317.244 280.536 318.558 280.356 320.43H281.832C281.994 319.296 283.074 318.522 284.46 318.522C285.9 318.522 286.89 319.368 286.908 320.574C286.89 321.348 285.63 321.33 284.172 321.474C282.264 321.672 280.14 322.086 280.14 324.282C280.14 326.028 281.526 327.144 283.686 327.144ZM283.902 325.866C282.534 325.866 281.634 325.236 281.634 324.246C281.634 323.022 282.948 322.842 284.262 322.698C285.432 322.572 286.494 322.464 286.908 321.906V323.148C286.908 324.732 285.684 325.866 283.902 325.866Z" fill="#1C1B1F"/>
<path d="M181.12 243V233.064L185.206 243H186.664L190.768 233.028V243H192.28V230.4H190.372L185.944 241.2L181.498 230.4H179.608V243H181.12ZM198.113 243.144C199.769 243.144 200.849 242.46 201.407 241.362V241.65C201.407 242.532 201.947 243 202.973 243H203.819V241.776H203.279C202.955 241.776 202.793 241.614 202.793 241.308V236.664C202.793 234.648 201.281 233.244 198.923 233.244C196.655 233.244 194.963 234.558 194.783 236.43H196.259C196.421 235.296 197.501 234.522 198.887 234.522C200.327 234.522 201.317 235.368 201.335 236.574C201.317 237.348 200.057 237.33 198.599 237.474C196.691 237.672 194.567 238.086 194.567 240.282C194.567 242.028 195.953 243.144 198.113 243.144ZM198.329 241.866C196.961 241.866 196.061 241.236 196.061 240.246C196.061 239.022 197.375 238.842 198.689 238.698C199.859 238.572 200.921 238.464 201.335 237.906V239.148C201.335 240.732 200.111 241.866 198.329 241.866ZM206.988 243V237.996C206.988 236.034 208.158 234.882 210.174 234.882H210.498V233.406H210.174C208.59 233.406 207.474 234.054 206.862 235.278L206.682 233.46H205.494V243H206.988ZM216.035 243.198C218.501 243.198 220.085 241.74 220.355 239.274H218.897C218.627 240.93 217.583 241.902 216.053 241.902C214.271 241.902 212.795 240.606 212.795 238.176C212.795 235.926 214.055 234.54 215.945 234.54C217.547 234.54 218.645 235.548 218.897 237.132H220.355C220.085 234.684 218.375 233.244 215.981 233.244C213.389 233.244 211.283 234.972 211.283 238.176C211.283 240.93 212.939 243.198 216.035 243.198ZM223.864 243V237.204C223.882 235.746 224.926 234.558 226.726 234.558C228.076 234.558 228.94 235.404 228.94 236.736V243H230.434V236.682C230.434 234.576 229.066 233.244 227.014 233.244C225.718 233.244 224.548 233.82 223.864 234.684V229.5H222.37V243H223.864ZM236.987 243.198C239.165 243.198 240.713 241.956 241.145 239.994H239.687C239.291 241.236 238.319 241.902 236.987 241.902C235.061 241.902 233.873 240.516 233.783 238.482H241.181V238.068C241.127 235.008 239.435 233.244 236.807 233.244C234.395 233.244 232.289 235.008 232.289 238.266C232.289 241.128 234.161 243.198 236.987 243.198ZM233.873 237.24C234.179 235.53 235.295 234.54 236.807 234.54C238.337 234.54 239.345 235.566 239.615 237.24H233.873Z" fill="#1C1B1F"/>
<path d="M231.5 439V434.014H235.946C238.178 434.014 239.978 432.646 239.978 430.09C239.978 428.074 238.574 426.4 235.946 426.4H229.988V439H231.5ZM231.5 427.786H236.018C237.35 427.786 238.43 428.596 238.43 430.09C238.43 431.494 237.584 432.628 236.018 432.628H231.5V427.786ZM245.39 439.198C246.704 439.198 247.856 438.64 248.486 437.56L248.612 439H249.8V429.46H248.306V435.256C248.288 436.696 247.316 437.884 245.534 437.884C244.184 437.884 243.23 437.146 243.23 435.778V429.46H241.736V435.832C241.736 437.776 243.068 439.198 245.39 439.198ZM256.41 442.816C259.254 442.816 260.874 441.16 260.874 438.748V429.46H259.704L259.542 431.116C258.894 429.964 257.652 429.244 256.122 429.244C253.602 429.244 251.766 431.224 251.766 434.086C251.766 436.894 253.584 438.838 256.122 438.838C257.58 438.838 258.732 438.19 259.398 437.2V438.748C259.398 440.386 258.372 441.556 256.41 441.556C254.736 441.556 253.584 440.692 253.584 439.558H252.09C252.09 441.574 253.836 442.816 256.41 442.816ZM256.338 437.542C254.556 437.542 253.314 436.12 253.314 434.068C253.314 431.98 254.556 430.54 256.338 430.54C258.138 430.54 259.398 431.98 259.398 434.032C259.398 436.102 258.138 437.542 256.338 437.542ZM264.875 439V425.5H263.381V439H264.875ZM268.126 427.858C268.756 427.858 269.224 427.372 269.224 426.742C269.224 426.112 268.756 425.644 268.126 425.644C267.496 425.644 267.01 426.112 267.01 426.742C267.01 427.372 267.496 427.858 268.126 427.858ZM268.864 439V429.46H267.37V439H268.864ZM274.385 439.144C276.041 439.144 277.121 438.46 277.679 437.362V437.65C277.679 438.532 278.219 439 279.245 439H280.091V437.776H279.551C279.227 437.776 279.065 437.614 279.065 437.308V432.664C279.065 430.648 277.553 429.244 275.195 429.244C272.927 429.244 271.235 430.558 271.055 432.43H272.531C272.693 431.296 273.773 430.522 275.159 430.522C276.599 430.522 277.589 431.368 277.607 432.574C277.589 433.348 276.329 433.33 274.871 433.474C272.963 433.672 270.839 434.086 270.839 436.282C270.839 438.028 272.225 439.144 274.385 439.144ZM274.601 437.866C273.233 437.866 272.333 437.236 272.333 436.246C272.333 435.022 273.647 434.842 274.961 434.698C276.131 434.572 277.193 434.464 277.607 433.906V435.148C277.607 436.732 276.383 437.866 274.601 437.866Z" fill="#1C1B1F"/>
<path d="M237.832 467V455.786H242.188V454.4H231.964V455.786H236.32V467H237.832ZM246.438 467.198C249.12 467.198 251.118 465.434 251.118 462.14C251.118 459.44 249.48 457.244 246.438 457.244C243.846 457.244 241.758 458.954 241.758 462.14C241.758 465.02 243.378 467.198 246.438 467.198ZM246.438 465.902C244.71 465.902 243.288 464.588 243.288 462.14C243.288 459.998 244.53 458.54 246.438 458.54C248.346 458.54 249.588 459.998 249.588 462.14C249.588 464.21 248.472 465.902 246.438 465.902ZM256.636 467.198C258.958 467.198 260.182 466.19 260.182 464.516C260.182 462.932 259.138 462.338 257.392 461.762L256.096 461.33C255.304 461.06 254.26 460.862 254.26 459.872C254.26 459.044 254.944 458.522 256.114 458.522C257.41 458.522 258.346 459.17 258.508 460.502H259.966C259.732 458.378 258.274 457.244 256.168 457.244C254.08 457.244 252.82 458.288 252.82 459.908C252.82 461.636 254.224 462.068 255.628 462.536L257.014 463.004C258.004 463.346 258.706 463.544 258.706 464.444C258.706 465.398 258.058 465.92 256.708 465.92C255.268 465.92 254.134 465.236 254.026 463.994H252.568C252.694 466.01 254.368 467.198 256.636 467.198ZM266.285 467.198C268.751 467.198 270.335 465.74 270.605 463.274H269.147C268.877 464.93 267.833 465.902 266.303 465.902C264.521 465.902 263.045 464.606 263.045 462.176C263.045 459.926 264.305 458.54 266.195 458.54C267.797 458.54 268.895 459.548 269.147 461.132H270.605C270.335 458.684 268.625 457.244 266.231 457.244C263.639 457.244 261.533 458.972 261.533 462.176C261.533 464.93 263.189 467.198 266.285 467.198ZM275.644 467.144C277.3 467.144 278.38 466.46 278.938 465.362V465.65C278.938 466.532 279.478 467 280.504 467H281.35V465.776H280.81C280.486 465.776 280.324 465.614 280.324 465.308V460.664C280.324 458.648 278.812 457.244 276.454 457.244C274.186 457.244 272.494 458.558 272.314 460.43H273.79C273.952 459.296 275.032 458.522 276.418 458.522C277.858 458.522 278.848 459.368 278.866 460.574C278.848 461.348 277.588 461.33 276.13 461.474C274.222 461.672 272.098 462.086 272.098 464.282C272.098 466.028 273.484 467.144 275.644 467.144ZM275.86 465.866C274.492 465.866 273.592 465.236 273.592 464.246C273.592 463.022 274.906 462.842 276.22 462.698C277.39 462.572 278.452 462.464 278.866 461.906V463.148C278.866 464.732 277.642 465.866 275.86 465.866ZM284.519 467V461.204C284.537 459.746 285.581 458.558 287.291 458.558C288.731 458.558 289.595 459.404 289.595 460.736V467H291.089V460.682C291.089 458.576 289.721 457.244 287.669 457.244C286.247 457.244 285.005 457.91 284.357 458.918L284.213 457.46H283.025V467H284.519ZM296.509 467.144C298.165 467.144 299.245 466.46 299.803 465.362V465.65C299.803 466.532 300.343 467 301.369 467H302.215V465.776H301.675C301.351 465.776 301.189 465.614 301.189 465.308V460.664C301.189 458.648 299.677 457.244 297.319 457.244C295.051 457.244 293.359 458.558 293.179 460.43H294.655C294.817 459.296 295.897 458.522 297.283 458.522C298.723 458.522 299.713 459.368 299.731 460.574C299.713 461.348 298.453 461.33 296.995 461.474C295.087 461.672 292.963 462.086 292.963 464.282C292.963 466.028 294.349 467.144 296.509 467.144ZM296.725 465.866C295.357 465.866 294.457 465.236 294.457 464.246C294.457 463.022 295.771 462.842 297.085 462.698C298.255 462.572 299.317 462.464 299.731 461.906V463.148C299.731 464.732 298.507 465.866 296.725 465.866Z" fill="#1C1B1F"/>
<path d="M251.367 495.198C254.661 495.198 256.749 493.434 257.307 490.158H255.741C255.255 492.534 253.725 493.812 251.367 493.812C248.541 493.812 246.795 491.886 246.795 488.664C246.795 485.55 248.541 483.588 251.367 483.588C253.653 483.588 255.273 484.938 255.741 487.242H257.307C256.767 484.074 254.571 482.202 251.367 482.202C247.497 482.202 245.211 484.92 245.211 488.664C245.211 492.48 247.497 495.198 251.367 495.198ZM262.569 495.144C264.225 495.144 265.305 494.46 265.863 493.362V493.65C265.863 494.532 266.403 495 267.429 495H268.275V493.776H267.735C267.411 493.776 267.249 493.614 267.249 493.308V488.664C267.249 486.648 265.737 485.244 263.379 485.244C261.111 485.244 259.419 486.558 259.239 488.43H260.715C260.877 487.296 261.957 486.522 263.343 486.522C264.783 486.522 265.773 487.368 265.791 488.574C265.773 489.348 264.513 489.33 263.055 489.474C261.147 489.672 259.023 490.086 259.023 492.282C259.023 494.028 260.409 495.144 262.569 495.144ZM262.785 493.866C261.417 493.866 260.517 493.236 260.517 492.246C260.517 491.022 261.831 490.842 263.145 490.698C264.315 490.572 265.377 490.464 265.791 489.906V491.148C265.791 492.732 264.567 493.866 262.785 493.866ZM271.444 495V489.204C271.462 487.746 272.506 486.558 274.288 486.558C275.566 486.558 276.358 487.386 276.358 488.664V495H277.834V489.204C277.852 487.746 278.896 486.558 280.678 486.558C281.956 486.558 282.748 487.386 282.748 488.664V495H284.242V488.61C284.242 486.666 282.946 485.244 280.93 485.244C279.472 485.244 278.158 486.018 277.546 487.134C277.06 485.982 275.98 485.244 274.54 485.244C273.172 485.244 271.93 485.91 271.282 486.936L271.138 485.46H269.95V495H271.444ZM288.108 498.6V493.416C288.792 494.532 289.998 495.198 291.456 495.198C293.976 495.198 295.74 493.146 295.74 490.176C295.74 487.26 293.976 485.244 291.456 485.244C289.908 485.244 288.648 486 287.964 487.188L287.802 485.46H286.614V498.6H288.108ZM291.222 493.902C289.404 493.902 288.108 492.336 288.108 490.104C288.108 487.998 289.404 486.54 291.204 486.54C292.986 486.54 294.192 488.034 294.192 490.176C294.192 492.372 292.986 493.902 291.222 493.902ZM300.783 495.144C302.439 495.144 303.519 494.46 304.077 493.362V493.65C304.077 494.532 304.617 495 305.643 495H306.489V493.776H305.949C305.625 493.776 305.463 493.614 305.463 493.308V488.664C305.463 486.648 303.951 485.244 301.593 485.244C299.325 485.244 297.633 486.558 297.453 488.43H298.929C299.091 487.296 300.171 486.522 301.557 486.522C302.997 486.522 303.987 487.368 304.005 488.574C303.987 489.348 302.727 489.33 301.269 489.474C299.361 489.672 297.237 490.086 297.237 492.282C297.237 494.028 298.623 495.144 300.783 495.144ZM300.999 493.866C299.631 493.866 298.731 493.236 298.731 492.246C298.731 491.022 300.045 490.842 301.359 490.698C302.529 490.572 303.591 490.464 304.005 489.906V491.148C304.005 492.732 302.781 493.866 300.999 493.866ZM309.658 495V489.204C309.676 487.746 310.72 486.558 312.43 486.558C313.87 486.558 314.734 487.404 314.734 488.736V495H316.228V488.682C316.228 486.576 314.86 485.244 312.808 485.244C311.386 485.244 310.144 485.91 309.496 486.918L309.352 485.46H308.164V495H309.658ZM319.327 483.858C319.957 483.858 320.425 483.372 320.425 482.742C320.425 482.112 319.957 481.644 319.327 481.644C318.697 481.644 318.211 482.112 318.211 482.742C318.211 483.372 318.697 483.858 319.327 483.858ZM320.065 495V485.46H318.571V495H320.065ZM325.586 495.144C327.242 495.144 328.322 494.46 328.88 493.362V493.65C328.88 494.532 329.42 495 330.446 495H331.292V493.776H330.752C330.428 493.776 330.266 493.614 330.266 493.308V488.664C330.266 486.648 328.754 485.244 326.396 485.244C324.128 485.244 322.436 486.558 322.256 488.43H323.732C323.894 487.296 324.974 486.522 326.36 486.522C327.8 486.522 328.79 487.368 328.808 488.574C328.79 489.348 327.53 489.33 326.072 489.474C324.164 489.672 322.04 490.086 322.04 492.282C322.04 494.028 323.426 495.144 325.586 495.144ZM325.802 493.866C324.434 493.866 323.534 493.236 323.534 492.246C323.534 491.022 324.848 490.842 326.162 490.698C327.332 490.572 328.394 490.464 328.808 489.906V491.148C328.808 492.732 327.584 493.866 325.802 493.866Z" fill="#1C1B1F"/>
<path d="M250.65 523.198C253.44 523.198 255.132 521.866 255.132 519.652C255.132 517.276 253.206 516.646 251.604 516.142L249.57 515.512C248.49 515.17 247.05 514.882 247.05 513.496C247.05 512.29 248.166 511.57 249.75 511.57C251.748 511.57 252.99 512.56 253.116 514.342H254.682C254.484 511.66 252.702 510.202 249.822 510.202C247.212 510.202 245.538 511.534 245.538 513.568C245.538 516.034 248.076 516.574 249.084 516.898L251.262 517.582C252.468 517.96 253.584 518.446 253.584 519.724C253.584 521.038 252.576 521.83 250.65 521.83C248.436 521.83 246.906 520.804 246.726 519.184H245.142C245.304 521.56 247.482 523.198 250.65 523.198ZM257.876 511.858C258.506 511.858 258.974 511.372 258.974 510.742C258.974 510.112 258.506 509.644 257.876 509.644C257.246 509.644 256.76 510.112 256.76 510.742C256.76 511.372 257.246 511.858 257.876 511.858ZM258.614 523V513.46H257.12V523H258.614ZM265.324 523.198C267.79 523.198 269.374 521.74 269.644 519.274H268.186C267.916 520.93 266.872 521.902 265.342 521.902C263.56 521.902 262.084 520.606 262.084 518.176C262.084 515.926 263.344 514.54 265.234 514.54C266.836 514.54 267.934 515.548 268.186 517.132H269.644C269.374 514.684 267.664 513.244 265.27 513.244C262.678 513.244 260.572 514.972 260.572 518.176C260.572 520.93 262.228 523.198 265.324 523.198ZM272.361 511.858C272.991 511.858 273.459 511.372 273.459 510.742C273.459 510.112 272.991 509.644 272.361 509.644C271.731 509.644 271.245 510.112 271.245 510.742C271.245 511.372 271.731 511.858 272.361 511.858ZM273.099 523V513.46H271.605V523H273.099ZM277.09 523V509.5H275.596V523H277.09ZM280.341 511.858C280.971 511.858 281.439 511.372 281.439 510.742C281.439 510.112 280.971 509.644 280.341 509.644C279.711 509.644 279.225 510.112 279.225 510.742C279.225 511.372 279.711 511.858 280.341 511.858ZM281.079 523V513.46H279.585V523H281.079ZM286.601 523.144C288.257 523.144 289.337 522.46 289.895 521.362V521.65C289.895 522.532 290.435 523 291.461 523H292.307V521.776H291.767C291.443 521.776 291.281 521.614 291.281 521.308V516.664C291.281 514.648 289.769 513.244 287.411 513.244C285.143 513.244 283.451 514.558 283.271 516.43H284.747C284.909 515.296 285.989 514.522 287.375 514.522C288.815 514.522 289.805 515.368 289.823 516.574C289.805 517.348 288.545 517.33 287.087 517.474C285.179 517.672 283.055 518.086 283.055 520.282C283.055 522.028 284.441 523.144 286.601 523.144ZM286.817 521.866C285.449 521.866 284.549 521.236 284.549 520.246C284.549 519.022 285.863 518.842 287.177 518.698C288.347 518.572 289.409 518.464 289.823 517.906V519.148C289.823 520.732 288.599 521.866 286.817 521.866Z" fill="#1C1B1F"/>
<path d="M287.801 551V549.614H281.051V538.4H279.539V551H287.801ZM292.823 551.144C294.479 551.144 295.559 550.46 296.117 549.362V549.65C296.117 550.532 296.657 551 297.683 551H298.529V549.776H297.989C297.665 549.776 297.503 549.614 297.503 549.308V544.664C297.503 542.648 295.991 541.244 293.633 541.244C291.365 541.244 289.673 542.558 289.493 544.43H290.969C291.131 543.296 292.211 542.522 293.597 542.522C295.037 542.522 296.027 543.368 296.045 544.574C296.027 545.348 294.767 545.33 293.309 545.474C291.401 545.672 289.277 546.086 289.277 548.282C289.277 550.028 290.663 551.144 292.823 551.144ZM293.039 549.866C291.671 549.866 290.771 549.236 290.771 548.246C290.771 547.022 292.085 546.842 293.399 546.698C294.569 546.572 295.631 546.464 296.045 545.906V547.148C296.045 548.732 294.821 549.866 293.039 549.866ZM307.382 551V549.65H301.694L307.31 542.81V541.46H300.146V542.81H305.6L299.984 549.65V551H307.382ZM310.206 539.858C310.836 539.858 311.304 539.372 311.304 538.742C311.304 538.112 310.836 537.644 310.206 537.644C309.576 537.644 309.09 538.112 309.09 538.742C309.09 539.372 309.576 539.858 310.206 539.858ZM310.944 551V541.46H309.45V551H310.944ZM317.581 551.198C320.263 551.198 322.261 549.434 322.261 546.14C322.261 543.44 320.623 541.244 317.581 541.244C314.989 541.244 312.901 542.954 312.901 546.14C312.901 549.02 314.521 551.198 317.581 551.198ZM317.581 549.902C315.853 549.902 314.431 548.588 314.431 546.14C314.431 543.998 315.673 542.54 317.581 542.54C319.489 542.54 320.731 543.998 320.731 546.14C320.731 548.21 319.615 549.902 317.581 549.902Z" fill="#1C1B1F"/>
<path d="M159.41 215V210.014H163.856C166.088 210.014 167.888 208.646 167.888 206.09C167.888 204.074 166.484 202.4 163.856 202.4H157.898V215H159.41ZM159.41 203.786H163.928C165.26 203.786 166.34 204.596 166.34 206.09C166.34 207.494 165.494 208.628 163.928 208.628H159.41V203.786ZM170.583 203.858C171.213 203.858 171.681 203.372 171.681 202.742C171.681 202.112 171.213 201.644 170.583 201.644C169.953 201.644 169.467 202.112 169.467 202.742C169.467 203.372 169.953 203.858 170.583 203.858ZM171.321 215V205.46H169.827V215H171.321ZM177.976 215.198C180.154 215.198 181.702 213.956 182.134 211.994H180.676C180.28 213.236 179.308 213.902 177.976 213.902C176.05 213.902 174.862 212.516 174.772 210.482H182.17V210.068C182.116 207.008 180.424 205.244 177.796 205.244C175.384 205.244 173.278 207.008 173.278 210.266C173.278 213.128 175.15 215.198 177.976 215.198ZM174.862 209.24C175.168 207.53 176.284 206.54 177.796 206.54C179.326 206.54 180.334 207.566 180.604 209.24H174.862ZM185.629 215V209.204C185.647 207.746 186.691 206.558 188.473 206.558C189.751 206.558 190.543 207.386 190.543 208.664V215H192.019V209.204C192.037 207.746 193.081 206.558 194.863 206.558C196.141 206.558 196.933 207.386 196.933 208.664V215H198.427V208.61C198.427 206.666 197.131 205.244 195.115 205.244C193.657 205.244 192.343 206.018 191.731 207.134C191.245 205.982 190.165 205.244 188.725 205.244C187.357 205.244 186.115 205.91 185.467 206.936L185.323 205.46H184.135V215H185.629ZM204.958 215.198C207.64 215.198 209.638 213.434 209.638 210.14C209.638 207.44 208 205.244 204.958 205.244C202.366 205.244 200.278 206.954 200.278 210.14C200.278 213.02 201.898 215.198 204.958 215.198ZM204.958 213.902C203.23 213.902 201.808 212.588 201.808 210.14C201.808 207.998 203.05 206.54 204.958 206.54C206.866 206.54 208.108 207.998 208.108 210.14C208.108 212.21 206.992 213.902 204.958 213.902ZM213.086 215V209.204C213.104 207.746 214.148 206.558 215.858 206.558C217.298 206.558 218.162 207.404 218.162 208.736V215H219.656V208.682C219.656 206.576 218.288 205.244 216.236 205.244C214.814 205.244 213.572 205.91 212.924 206.918L212.78 205.46H211.592V215H213.086ZM226.791 215V213.74H225.729C224.847 213.74 224.379 213.236 224.379 212.282V206.72H226.953V205.46H224.379V202.202H222.885V205.46H221.121V206.72H222.885V212.282C222.885 214.046 223.875 215 225.729 215H226.791ZM232.697 215.198C234.875 215.198 236.423 213.956 236.855 211.994H235.397C235.001 213.236 234.029 213.902 232.697 213.902C230.771 213.902 229.583 212.516 229.493 210.482H236.891V210.068C236.837 207.008 235.145 205.244 232.517 205.244C230.105 205.244 227.999 207.008 227.999 210.266C227.999 213.128 229.871 215.198 232.697 215.198ZM229.583 209.24C229.889 207.53 231.005 206.54 232.517 206.54C234.047 206.54 235.055 207.566 235.325 209.24H229.583Z" fill="#1C1B1F"/>
<path d="M95.6489 75V71.85H97.8629V70.464H95.6489V62.4H94.1189L87.8909 70.5V71.85H94.1369V75H95.6489ZM94.1369 64.506V70.464H89.5469L94.1369 64.506ZM104.075 75.198C107.009 75.198 108.881 72.642 108.881 68.664C108.881 64.722 107.009 62.202 104.075 62.202C101.141 62.202 99.2694 64.722 99.2694 68.664C99.2694 72.642 101.141 75.198 104.075 75.198ZM104.075 73.812C102.095 73.812 100.817 71.796 100.817 68.664C100.817 65.568 102.095 63.588 104.075 63.588C106.055 63.588 107.333 65.568 107.333 68.664C107.333 71.796 106.055 73.812 104.075 73.812Z" fill="#6750A4"/>
<path d="M62.9372 19.198C65.6372 19.198 67.4192 17.722 67.4192 15.58C67.4192 13.96 66.3932 12.826 64.5932 12.412C65.9972 12.034 66.9512 10.918 66.9512 9.46C66.9512 7.552 65.3132 6.202 62.9732 6.202C60.4712 6.202 58.6712 7.732 58.3472 10.126H59.9132C60.1472 8.578 61.3172 7.588 62.8832 7.588C64.4132 7.588 65.4392 8.506 65.4392 9.766C65.4392 11.044 64.3952 11.908 62.9012 11.908H61.2092V13.15H62.9012C64.8092 13.15 65.9252 14.014 65.9252 15.418C65.9252 16.858 64.7552 17.812 62.9552 17.812C60.9932 17.812 59.6792 16.714 59.5712 14.986H58.0052C58.1672 17.56 60.0932 19.198 62.9372 19.198ZM73.9612 19.198C76.8952 19.198 78.7672 16.642 78.7672 12.664C78.7672 8.722 76.8952 6.202 73.9612 6.202C71.0272 6.202 69.1552 8.722 69.1552 12.664C69.1552 16.642 71.0272 19.198 73.9612 19.198ZM73.9612 17.812C71.9812 17.812 70.7032 15.796 70.7032 12.664C70.7032 9.568 71.9812 7.588 73.9612 7.588C75.9412 7.588 77.2192 9.568 77.2192 12.664C77.2192 15.796 75.9412 17.812 73.9612 17.812Z" fill="#1C1B1F"/>
<path d="M95.6489 47V43.85H97.8629V42.464H95.6489V34.4H94.1189L87.8909 42.5V43.85H94.1369V47H95.6489ZM94.1369 36.506V42.464H89.5469L94.1369 36.506ZM104.075 47.198C107.009 47.198 108.881 44.642 108.881 40.664C108.881 36.722 107.009 34.202 104.075 34.202C101.141 34.202 99.2694 36.722 99.2694 40.664C99.2694 44.642 101.141 47.198 104.075 47.198ZM104.075 45.812C102.095 45.812 100.817 43.796 100.817 40.664C100.817 37.568 102.095 35.588 104.075 35.588C106.055 35.588 107.333 37.568 107.333 40.664C107.333 43.796 106.055 45.812 104.075 45.812Z" fill="#1C1B1F"/>
<path d="M104.882 103V99.85H107.096V98.464H104.882V90.4H103.352L97.1243 98.5V99.85H103.37V103H104.882ZM103.37 92.506V98.464H98.7803L103.37 92.506ZM112.064 103V90.4H110.57V90.58C110.57 92.092 109.562 92.902 107.672 92.902H107.456V94.378H107.672C108.986 94.378 109.958 93.982 110.552 93.19V103H112.064Z" fill="#1C1B1F"/>
<path d="M104.882 131V127.85H107.096V126.464H104.882V118.4H103.352L97.1243 126.5V127.85H103.37V131H104.882ZM103.37 120.506V126.464H98.7803L103.37 120.506ZM112.064 131V118.4H110.57V118.58C110.57 120.092 109.562 120.902 107.672 120.902H107.456V122.378H107.672C108.986 122.378 109.958 121.982 110.552 121.19V131H112.064Z" fill="#1C1B1F"/>
<path d="M122.855 159.198C125.537 159.198 127.355 157.434 127.355 154.878C127.355 152.43 125.681 150.702 123.323 150.702C122.081 150.702 121.055 151.188 120.281 152.034L120.929 147.786H126.815V146.4H119.669L118.643 153.24H120.317C121.127 152.376 121.973 151.998 122.927 151.998C124.637 151.998 125.825 153.186 125.825 154.896C125.825 156.624 124.637 157.812 122.855 157.812C121.199 157.812 119.975 156.804 119.777 155.202H118.211C118.481 157.65 120.335 159.198 122.855 159.198ZM133.917 159.198C136.851 159.198 138.723 156.642 138.723 152.664C138.723 148.722 136.851 146.202 133.917 146.202C130.983 146.202 129.111 148.722 129.111 152.664C129.111 156.642 130.983 159.198 133.917 159.198ZM133.917 157.812C131.937 157.812 130.659 155.796 130.659 152.664C130.659 149.568 131.937 147.588 133.917 147.588C135.897 147.588 137.175 149.568 137.175 152.664C137.175 155.796 135.897 157.812 133.917 157.812Z" fill="#1C1B1F"/>
<path d="M122.855 187.198C125.537 187.198 127.355 185.434 127.355 182.878C127.355 180.43 125.681 178.702 123.323 178.702C122.081 178.702 121.055 179.188 120.281 180.034L120.929 175.786H126.815V174.4H119.669L118.643 181.24H120.317C121.127 180.376 121.973 179.998 122.927 179.998C124.637 179.998 125.825 181.186 125.825 182.896C125.825 184.624 124.637 185.812 122.855 185.812C121.199 185.812 119.975 184.804 119.777 183.202H118.211C118.481 185.65 120.335 187.198 122.855 187.198ZM133.917 187.198C136.851 187.198 138.723 184.642 138.723 180.664C138.723 176.722 136.851 174.202 133.917 174.202C130.983 174.202 129.111 176.722 129.111 180.664C129.111 184.642 130.983 187.198 133.917 187.198ZM133.917 185.812C131.937 185.812 130.659 183.796 130.659 180.664C130.659 177.568 131.937 175.588 133.917 175.588C135.897 175.588 137.175 177.568 137.175 180.664C137.175 183.796 135.897 185.812 133.917 185.812Z" fill="#1C1B1F"/>
<path d="M122.855 215.198C125.537 215.198 127.355 213.434 127.355 210.878C127.355 208.43 125.681 206.702 123.323 206.702C122.081 206.702 121.055 207.188 120.281 208.034L120.929 203.786H126.815V202.4H119.669L118.643 209.24H120.317C121.127 208.376 121.973 207.998 122.927 207.998C124.637 207.998 125.825 209.186 125.825 210.896C125.825 212.624 124.637 213.812 122.855 213.812C121.199 213.812 119.975 212.804 119.777 211.202H118.211C118.481 213.65 120.335 215.198 122.855 215.198ZM133.917 215.198C136.851 215.198 138.723 212.642 138.723 208.664C138.723 204.722 136.851 202.202 133.917 202.202C130.983 202.202 129.111 204.722 129.111 208.664C129.111 212.642 130.983 215.198 133.917 215.198ZM133.917 213.812C131.937 213.812 130.659 211.796 130.659 208.664C130.659 205.568 131.937 203.588 133.917 203.588C135.897 203.588 137.175 205.568 137.175 208.664C137.175 211.796 135.897 213.812 133.917 213.812Z" fill="#1C1B1F"/>
<path d="M144.866 243.198C147.548 243.198 149.366 241.434 149.366 238.878C149.366 236.43 147.692 234.702 145.334 234.702C144.092 234.702 143.066 235.188 142.292 236.034L142.94 231.786H148.826V230.4H141.68L140.654 237.24H142.328C143.138 236.376 143.984 235.998 144.938 235.998C146.648 235.998 147.836 237.186 147.836 238.896C147.836 240.624 146.648 241.812 144.866 241.812C143.21 241.812 141.986 240.804 141.788 239.202H140.222C140.492 241.65 142.346 243.198 144.866 243.198ZM153.318 243L159.15 231.786V230.4H150.69V231.786H157.476L151.59 243H153.318Z" fill="#1C1B1F"/>
<path d="M153.187 271.198C155.761 271.198 157.543 269.434 157.543 266.896C157.543 264.394 155.815 262.666 153.421 262.666C151.351 262.666 149.821 263.926 149.389 265.42C149.371 265.186 149.353 264.97 149.353 264.7C149.353 261.712 150.685 259.588 153.169 259.588C154.699 259.588 155.887 260.632 156.067 262.126H157.633C157.399 259.804 155.563 258.202 153.169 258.202C150.019 258.202 147.967 260.542 147.967 264.61C147.967 268.39 149.749 271.198 153.187 271.198ZM153.079 269.83C151.603 269.83 150.127 268.84 150.127 266.914C150.127 264.97 151.639 263.962 153.115 263.962C154.573 263.962 155.995 264.916 155.995 266.896C155.995 268.858 154.537 269.83 153.079 269.83ZM164.234 271.198C167.168 271.198 169.04 268.642 169.04 264.664C169.04 260.722 167.168 258.202 164.234 258.202C161.3 258.202 159.428 260.722 159.428 264.664C159.428 268.642 161.3 271.198 164.234 271.198ZM164.234 269.812C162.254 269.812 160.976 267.796 160.976 264.664C160.976 261.568 162.254 259.588 164.234 259.588C166.214 259.588 167.492 261.568 167.492 264.664C167.492 267.796 166.214 269.812 164.234 269.812Z" fill="#1C1B1F"/>
<path d="M171.213 300.198C173.787 300.198 175.569 298.434 175.569 295.896C175.569 293.394 173.841 291.666 171.447 291.666C169.377 291.666 167.847 292.926 167.415 294.42C167.397 294.186 167.379 293.97 167.379 293.7C167.379 290.712 168.711 288.588 171.195 288.588C172.725 288.588 173.913 289.632 174.093 291.126H175.659C175.425 288.804 173.589 287.202 171.195 287.202C168.045 287.202 165.993 289.542 165.993 293.61C165.993 297.39 167.775 300.198 171.213 300.198ZM171.105 298.83C169.629 298.83 168.153 297.84 168.153 295.914C168.153 293.97 169.665 292.962 171.141 292.962C172.599 292.962 174.021 293.916 174.021 295.896C174.021 297.858 172.563 298.83 171.105 298.83ZM182.674 300.198C185.248 300.198 187.03 298.434 187.03 295.896C187.03 293.394 185.302 291.666 182.908 291.666C180.838 291.666 179.308 292.926 178.876 294.42C178.858 294.186 178.84 293.97 178.84 293.7C178.84 290.712 180.172 288.588 182.656 288.588C184.186 288.588 185.374 289.632 185.554 291.126H187.12C186.886 288.804 185.05 287.202 182.656 287.202C179.506 287.202 177.454 289.542 177.454 293.61C177.454 297.39 179.236 300.198 182.674 300.198ZM182.566 298.83C181.09 298.83 179.614 297.84 179.614 295.914C179.614 293.97 181.126 292.962 182.602 292.962C184.06 292.962 185.482 293.916 185.482 295.896C185.482 297.858 184.024 298.83 182.566 298.83Z" fill="#1C1B1F"/>
<path d="M175.329 327.198C177.903 327.198 179.685 325.434 179.685 322.896C179.685 320.394 177.957 318.666 175.563 318.666C173.493 318.666 171.963 319.926 171.531 321.42C171.513 321.186 171.495 320.97 171.495 320.7C171.495 317.712 172.827 315.588 175.311 315.588C176.841 315.588 178.029 316.632 178.209 318.126H179.775C179.541 315.804 177.705 314.202 175.311 314.202C172.161 314.202 170.109 316.542 170.109 320.61C170.109 324.39 171.891 327.198 175.329 327.198ZM175.221 325.83C173.745 325.83 172.269 324.84 172.269 322.914C172.269 320.97 173.781 319.962 175.257 319.962C176.715 319.962 178.137 320.916 178.137 322.896C178.137 324.858 176.679 325.83 175.221 325.83ZM183.503 327L189.335 315.786V314.4H180.875V315.786H187.661L181.775 327H183.503Z" fill="#1C1B1F"/>
<path d="M177.345 355.198C179.919 355.198 181.701 353.434 181.701 350.896C181.701 348.394 179.973 346.666 177.579 346.666C175.509 346.666 173.979 347.926 173.547 349.42C173.529 349.186 173.511 348.97 173.511 348.7C173.511 345.712 174.843 343.588 177.327 343.588C178.857 343.588 180.045 344.632 180.225 346.126H181.791C181.557 343.804 179.721 342.202 177.327 342.202C174.177 342.202 172.125 344.542 172.125 348.61C172.125 352.39 173.907 355.198 177.345 355.198ZM177.237 353.83C175.761 353.83 174.285 352.84 174.285 350.914C174.285 348.97 175.797 347.962 177.273 347.962C178.731 347.962 180.153 348.916 180.153 350.896C180.153 352.858 178.695 353.83 177.237 353.83ZM188.248 355.198C191.164 355.198 193.018 353.686 193.018 351.508C193.018 350.05 192.064 348.916 190.552 348.358C191.722 347.8 192.442 346.81 192.442 345.568C192.442 343.588 190.714 342.202 188.248 342.202C185.746 342.202 184.018 343.588 184.018 345.568C184.018 346.81 184.738 347.818 185.926 348.358C184.396 348.916 183.442 350.05 183.442 351.508C183.442 353.758 185.404 355.198 188.248 355.198ZM188.248 347.836C186.646 347.836 185.53 346.936 185.53 345.64C185.53 344.416 186.646 343.552 188.248 343.552C189.832 343.552 190.93 344.416 190.93 345.64C190.93 346.936 189.832 347.836 188.248 347.836ZM188.248 353.812C186.34 353.812 185.008 352.822 185.008 351.418C185.008 349.996 186.34 349.006 188.248 349.006C190.138 349.006 191.452 349.996 191.452 351.418C191.452 352.822 190.138 353.812 188.248 353.812Z" fill="#1C1B1F"/>
<path d="M180.398 383.198C182.972 383.198 184.754 381.434 184.754 378.896C184.754 376.394 183.026 374.666 180.632 374.666C178.562 374.666 177.032 375.926 176.6 377.42C176.582 377.186 176.564 376.97 176.564 376.7C176.564 373.712 177.896 371.588 180.38 371.588C181.91 371.588 183.098 372.632 183.278 374.126H184.844C184.61 371.804 182.774 370.202 180.38 370.202C177.23 370.202 175.178 372.542 175.178 376.61C175.178 380.39 176.96 383.198 180.398 383.198ZM180.29 381.83C178.814 381.83 177.338 380.84 177.338 378.914C177.338 376.97 178.85 375.962 180.326 375.962C181.784 375.962 183.206 376.916 183.206 378.896C183.206 380.858 181.748 381.83 180.29 381.83ZM191.067 383.198C194.145 383.198 195.819 380.75 195.819 376.754C195.819 372.776 194.145 370.202 190.959 370.202C188.403 370.202 186.585 371.93 186.585 374.414C186.585 376.898 188.403 378.644 190.977 378.644C192.795 378.644 194.073 377.6 194.397 376.196C194.415 376.376 194.433 376.556 194.433 376.754C194.433 379.94 193.227 381.812 191.067 381.812C189.393 381.812 188.331 380.966 188.097 379.418H186.531C186.873 381.794 188.601 383.198 191.067 383.198ZM190.959 377.33C189.519 377.33 188.061 376.358 188.079 374.45C188.097 372.542 189.555 371.57 190.995 371.57C192.399 371.57 193.803 372.506 193.803 374.468C193.803 376.394 192.381 377.33 190.959 377.33Z" fill="#1C1B1F"/>
<path d="M189.564 412L195.396 400.786V399.4H186.936V400.786H193.722L187.836 412H189.564ZM201.054 412V399.4H199.56V399.58C199.56 401.092 198.552 401.902 196.662 401.902H196.446V403.378H196.662C197.976 403.378 198.948 402.982 199.542 402.19V412H201.054Z" fill="#1C1B1F"/>
<path d="M191.587 440L197.419 428.786V427.4H188.959V428.786H195.745L189.859 440H191.587ZM203.299 440.198C205.999 440.198 207.781 438.722 207.781 436.58C207.781 434.96 206.755 433.826 204.955 433.412C206.359 433.034 207.313 431.918 207.313 430.46C207.313 428.552 205.675 427.202 203.335 427.202C200.833 427.202 199.033 428.732 198.709 431.126H200.275C200.509 429.578 201.679 428.588 203.245 428.588C204.775 428.588 205.801 429.506 205.801 430.766C205.801 432.044 204.757 432.908 203.263 432.908H201.571V434.15H203.263C205.171 434.15 206.287 435.014 206.287 436.418C206.287 437.858 205.117 438.812 203.317 438.812C201.355 438.812 200.041 437.714 199.933 435.986H198.367C198.529 438.56 200.455 440.198 203.299 440.198Z" fill="#1C1B1F"/>
<path d="M199.306 467L205.138 455.786V454.4H196.678V455.786H203.464L197.578 467H199.306ZM210.542 467.198C213.224 467.198 215.042 465.434 215.042 462.878C215.042 460.43 213.368 458.702 211.01 458.702C209.768 458.702 208.742 459.188 207.968 460.034L208.616 455.786H214.502V454.4H207.356L206.33 461.24H208.004C208.814 460.376 209.66 459.998 210.614 459.998C212.324 459.998 213.512 461.186 213.512 462.896C213.512 464.624 212.324 465.812 210.542 465.812C208.886 465.812 207.662 464.804 207.464 463.202H205.898C206.168 465.65 208.022 467.198 210.542 467.198Z" fill="#1C1B1F"/>
<path d="M209.358 495L215.19 483.786V482.4H206.73V483.786H213.516L207.63 495H209.358ZM221.082 495.198C224.16 495.198 225.834 492.75 225.834 488.754C225.834 484.776 224.16 482.202 220.974 482.202C218.418 482.202 216.6 483.93 216.6 486.414C216.6 488.898 218.418 490.644 220.992 490.644C222.81 490.644 224.088 489.6 224.412 488.196C224.43 488.376 224.448 488.556 224.448 488.754C224.448 491.94 223.242 493.812 221.082 493.812C219.408 493.812 218.346 492.966 218.112 491.418H216.546C216.888 493.794 218.616 495.198 221.082 495.198ZM220.974 489.33C219.534 489.33 218.076 488.358 218.094 486.45C218.112 484.542 219.57 483.57 221.01 483.57C222.414 483.57 223.818 484.506 223.818 486.468C223.818 488.394 222.396 489.33 220.974 489.33Z" fill="#1C1B1F"/>
<path d="M209.358 523L215.19 511.786V510.4H206.73V511.786H213.516L207.63 523H209.358ZM221.082 523.198C224.16 523.198 225.834 520.75 225.834 516.754C225.834 512.776 224.16 510.202 220.974 510.202C218.418 510.202 216.6 511.93 216.6 514.414C216.6 516.898 218.418 518.644 220.992 518.644C222.81 518.644 224.088 517.6 224.412 516.196C224.43 516.376 224.448 516.556 224.448 516.754C224.448 519.94 223.242 521.812 221.082 521.812C219.408 521.812 218.346 520.966 218.112 519.418H216.546C216.888 521.794 218.616 523.198 221.082 523.198ZM220.974 517.33C219.534 517.33 218.076 516.358 218.094 514.45C218.112 512.542 219.57 511.57 221.01 511.57C222.414 511.57 223.818 512.506 223.818 514.468C223.818 516.394 222.396 517.33 220.974 517.33Z" fill="#1C1B1F"/>
<path d="M243.579 551.198C246.657 551.198 248.331 548.75 248.331 544.754C248.331 540.776 246.657 538.202 243.471 538.202C240.915 538.202 239.097 539.93 239.097 542.414C239.097 544.898 240.915 546.644 243.489 546.644C245.307 546.644 246.585 545.6 246.909 544.196C246.927 544.376 246.945 544.556 246.945 544.754C246.945 547.94 245.739 549.812 243.579 549.812C241.905 549.812 240.843 548.966 240.609 547.418H239.043C239.385 549.794 241.113 551.198 243.579 551.198ZM243.471 545.33C242.031 545.33 240.573 544.358 240.591 542.45C240.609 540.542 242.067 539.57 243.507 539.57C244.911 539.57 246.315 540.506 246.315 542.468C246.315 544.394 244.893 545.33 243.471 545.33ZM255.049 551.198C257.983 551.198 259.855 548.642 259.855 544.664C259.855 540.722 257.983 538.202 255.049 538.202C252.115 538.202 250.243 540.722 250.243 544.664C250.243 548.642 252.115 551.198 255.049 551.198ZM255.049 549.812C253.069 549.812 251.791 547.796 251.791 544.664C251.791 541.568 253.069 539.588 255.049 539.588C257.029 539.588 258.307 541.568 258.307 544.664C258.307 547.796 257.029 549.812 255.049 549.812Z" fill="#1C1B1F"/>
</svg>
